<mxfile host="app.diagrams.net" modified="2024-04-12T01:04:52.563Z" agent="Mozilla/5.0 (X11; Linux x86_64; rv:109.0) Gecko/20100101 Firefox/118.0" etag="LCpVeop_k5MM8W4SF1p8" version="24.2.3" type="google">
  <diagram name="Página-1" id="xI3HIGPN1Gm1-ybnn844">
    <mxGraphModel grid="1" page="1" gridSize="10" guides="1" tooltips="1" connect="1" arrows="1" fold="1" pageScale="1" pageWidth="827" pageHeight="1169" math="0" shadow="0">
      <root>
        <mxCell id="0" />
        <mxCell id="1" parent="0" />
        <mxCell id="3W7pm7vqjgpNa179hupT-29" style="edgeStyle=orthogonalEdgeStyle;rounded=0;orthogonalLoop=1;jettySize=auto;html=1;entryX=0.5;entryY=1;entryDx=0;entryDy=0;" edge="1" parent="1" source="3W7pm7vqjgpNa179hupT-14" target="3W7pm7vqjgpNa179hupT-15">
          <mxGeometry relative="1" as="geometry" />
        </mxCell>
        <mxCell id="XSVlNQGZRukZP-qQR-Ol-51" style="edgeStyle=orthogonalEdgeStyle;rounded=0;orthogonalLoop=1;jettySize=auto;html=1;exitX=0;exitY=0.5;exitDx=0;exitDy=0;entryX=1;entryY=0.5;entryDx=0;entryDy=0;" edge="1" parent="1" source="3W7pm7vqjgpNa179hupT-14" target="XSVlNQGZRukZP-qQR-Ol-50">
          <mxGeometry relative="1" as="geometry" />
        </mxCell>
        <mxCell id="3W7pm7vqjgpNa179hupT-14" value="&lt;div&gt;Criador&lt;/div&gt;&lt;div&gt;(0)&lt;br&gt;&lt;/div&gt;" style="ellipse;whiteSpace=wrap;html=1;" vertex="1" parent="1">
          <mxGeometry x="74" y="390" width="120" height="80" as="geometry" />
        </mxCell>
        <mxCell id="3W7pm7vqjgpNa179hupT-15" value="Gerar Threads" style="rounded=0;whiteSpace=wrap;html=1;" vertex="1" parent="1">
          <mxGeometry x="74" y="240" width="120" height="60" as="geometry" />
        </mxCell>
        <mxCell id="3W7pm7vqjgpNa179hupT-32" style="edgeStyle=orthogonalEdgeStyle;rounded=0;orthogonalLoop=1;jettySize=auto;html=1;entryX=0.5;entryY=0;entryDx=0;entryDy=0;" edge="1" parent="1" source="3W7pm7vqjgpNa179hupT-16" target="3W7pm7vqjgpNa179hupT-17">
          <mxGeometry relative="1" as="geometry" />
        </mxCell>
        <mxCell id="3W7pm7vqjgpNa179hupT-16" value="&lt;div&gt;Depósito de Mat. Prima&lt;/div&gt;&lt;div&gt;(1)&lt;br&gt;&lt;/div&gt;" style="ellipse;whiteSpace=wrap;html=1;" vertex="1" parent="1">
          <mxGeometry x="224" y="100" width="120" height="80" as="geometry" />
        </mxCell>
        <mxCell id="3W7pm7vqjgpNa179hupT-33" style="edgeStyle=orthogonalEdgeStyle;rounded=0;orthogonalLoop=1;jettySize=auto;html=1;" edge="1" parent="1" source="3W7pm7vqjgpNa179hupT-17" target="3W7pm7vqjgpNa179hupT-18">
          <mxGeometry relative="1" as="geometry" />
        </mxCell>
        <mxCell id="3W7pm7vqjgpNa179hupT-17" value="Transferir Mat. Prima" style="rounded=0;whiteSpace=wrap;html=1;" vertex="1" parent="1">
          <mxGeometry x="224" y="240" width="120" height="60" as="geometry" />
        </mxCell>
        <mxCell id="3W7pm7vqjgpNa179hupT-39" style="edgeStyle=orthogonalEdgeStyle;rounded=0;orthogonalLoop=1;jettySize=auto;html=1;exitX=0.5;exitY=1;exitDx=0;exitDy=0;entryX=0;entryY=0.5;entryDx=0;entryDy=0;" edge="1" parent="1" source="3W7pm7vqjgpNa179hupT-18" target="3W7pm7vqjgpNa179hupT-21">
          <mxGeometry relative="1" as="geometry" />
        </mxCell>
        <mxCell id="3W7pm7vqjgpNa179hupT-18" value="&lt;div&gt;Célula de Fabricação de Canetas&lt;/div&gt;&lt;div&gt;(2)&lt;br&gt;&lt;/div&gt;" style="ellipse;whiteSpace=wrap;html=1;" vertex="1" parent="1">
          <mxGeometry x="224" y="390" width="120" height="80" as="geometry" />
        </mxCell>
        <mxCell id="3W7pm7vqjgpNa179hupT-35" style="edgeStyle=orthogonalEdgeStyle;rounded=0;orthogonalLoop=1;jettySize=auto;html=1;entryX=1;entryY=0.5;entryDx=0;entryDy=0;" edge="1" parent="1" source="3W7pm7vqjgpNa179hupT-19" target="3W7pm7vqjgpNa179hupT-20">
          <mxGeometry relative="1" as="geometry" />
        </mxCell>
        <mxCell id="3W7pm7vqjgpNa179hupT-19" value="&lt;div&gt;Controle&lt;/div&gt;&lt;div&gt;(3)&lt;br&gt;&lt;/div&gt;" style="ellipse;whiteSpace=wrap;html=1;" vertex="1" parent="1">
          <mxGeometry x="634" y="230" width="120" height="80" as="geometry" />
        </mxCell>
        <mxCell id="3W7pm7vqjgpNa179hupT-36" style="edgeStyle=orthogonalEdgeStyle;rounded=0;orthogonalLoop=1;jettySize=auto;html=1;entryX=1;entryY=0.5;entryDx=0;entryDy=0;exitX=0.5;exitY=0;exitDx=0;exitDy=0;" edge="1" parent="1" source="3W7pm7vqjgpNa179hupT-20" target="3W7pm7vqjgpNa179hupT-16">
          <mxGeometry relative="1" as="geometry" />
        </mxCell>
        <mxCell id="3W7pm7vqjgpNa179hupT-38" style="edgeStyle=orthogonalEdgeStyle;rounded=0;orthogonalLoop=1;jettySize=auto;html=1;exitX=0.5;exitY=1;exitDx=0;exitDy=0;entryX=1;entryY=0.5;entryDx=0;entryDy=0;" edge="1" parent="1" source="3W7pm7vqjgpNa179hupT-20" target="3W7pm7vqjgpNa179hupT-18">
          <mxGeometry relative="1" as="geometry" />
        </mxCell>
        <mxCell id="3W7pm7vqjgpNa179hupT-20" value="Controlar Envio" style="rounded=0;whiteSpace=wrap;html=1;" vertex="1" parent="1">
          <mxGeometry x="448" y="240" width="120" height="60" as="geometry" />
        </mxCell>
        <mxCell id="3W7pm7vqjgpNa179hupT-43" style="edgeStyle=orthogonalEdgeStyle;rounded=0;orthogonalLoop=1;jettySize=auto;html=1;exitX=0.5;exitY=1;exitDx=0;exitDy=0;entryX=0;entryY=0;entryDx=0;entryDy=0;" edge="1" parent="1" source="3W7pm7vqjgpNa179hupT-21" target="3W7pm7vqjgpNa179hupT-23">
          <mxGeometry relative="1" as="geometry">
            <Array as="points">
              <mxPoint x="424" y="622" />
            </Array>
          </mxGeometry>
        </mxCell>
        <mxCell id="3W7pm7vqjgpNa179hupT-21" value="Transferir 1 caneta" style="rounded=0;whiteSpace=wrap;html=1;" vertex="1" parent="1">
          <mxGeometry x="364" y="510" width="120" height="60" as="geometry" />
        </mxCell>
        <mxCell id="3W7pm7vqjgpNa179hupT-22" value="Informa Qtd de slots para canetas" style="rounded=0;whiteSpace=wrap;html=1;" vertex="1" parent="1">
          <mxGeometry x="634" y="450" width="120" height="60" as="geometry" />
        </mxCell>
        <mxCell id="3W7pm7vqjgpNa179hupT-45" style="edgeStyle=orthogonalEdgeStyle;rounded=0;orthogonalLoop=1;jettySize=auto;html=1;exitX=1;exitY=1;exitDx=0;exitDy=0;" edge="1" parent="1" source="3W7pm7vqjgpNa179hupT-23" target="3W7pm7vqjgpNa179hupT-25">
          <mxGeometry relative="1" as="geometry" />
        </mxCell>
        <mxCell id="3W7pm7vqjgpNa179hupT-23" value="Depósito de canetas (4)" style="ellipse;whiteSpace=wrap;html=1;" vertex="1" parent="1">
          <mxGeometry x="504" y="610" width="120" height="80" as="geometry" />
        </mxCell>
        <mxCell id="3W7pm7vqjgpNa179hupT-44" style="edgeStyle=orthogonalEdgeStyle;rounded=0;orthogonalLoop=1;jettySize=auto;html=1;exitX=0.5;exitY=0;exitDx=0;exitDy=0;entryX=0;entryY=1;entryDx=0;entryDy=0;" edge="1" parent="1" source="3W7pm7vqjgpNa179hupT-24" target="3W7pm7vqjgpNa179hupT-23">
          <mxGeometry relative="1" as="geometry">
            <Array as="points">
              <mxPoint x="424" y="678" />
            </Array>
          </mxGeometry>
        </mxCell>
        <mxCell id="3W7pm7vqjgpNa179hupT-24" value="Pedir Compra Caneta" style="rounded=0;whiteSpace=wrap;html=1;" vertex="1" parent="1">
          <mxGeometry x="364" y="720" width="120" height="60" as="geometry" />
        </mxCell>
        <mxCell id="3W7pm7vqjgpNa179hupT-48" style="edgeStyle=orthogonalEdgeStyle;rounded=0;orthogonalLoop=1;jettySize=auto;html=1;exitX=0.5;exitY=1;exitDx=0;exitDy=0;entryX=1;entryY=0;entryDx=0;entryDy=0;" edge="1" parent="1" source="3W7pm7vqjgpNa179hupT-25" target="3W7pm7vqjgpNa179hupT-26">
          <mxGeometry relative="1" as="geometry">
            <Array as="points">
              <mxPoint x="694" y="862" />
            </Array>
          </mxGeometry>
        </mxCell>
        <mxCell id="3W7pm7vqjgpNa179hupT-25" value="Transferir Caneta" style="rounded=0;whiteSpace=wrap;html=1;" vertex="1" parent="1">
          <mxGeometry x="634" y="720" width="120" height="60" as="geometry" />
        </mxCell>
        <mxCell id="3W7pm7vqjgpNa179hupT-31" style="edgeStyle=orthogonalEdgeStyle;rounded=0;orthogonalLoop=1;jettySize=auto;html=1;entryX=1;entryY=0.5;entryDx=0;entryDy=0;" edge="1" parent="1" source="3W7pm7vqjgpNa179hupT-26" target="3W7pm7vqjgpNa179hupT-27">
          <mxGeometry relative="1" as="geometry" />
        </mxCell>
        <mxCell id="3W7pm7vqjgpNa179hupT-46" style="edgeStyle=orthogonalEdgeStyle;rounded=0;orthogonalLoop=1;jettySize=auto;html=1;exitX=0;exitY=0;exitDx=0;exitDy=0;entryX=0.5;entryY=1;entryDx=0;entryDy=0;" edge="1" parent="1" source="3W7pm7vqjgpNa179hupT-26" target="3W7pm7vqjgpNa179hupT-24">
          <mxGeometry relative="1" as="geometry" />
        </mxCell>
        <mxCell id="3W7pm7vqjgpNa179hupT-26" value="&lt;div&gt;Comprador&lt;/div&gt;&lt;div&gt;(5)&lt;br&gt;&lt;/div&gt;" style="ellipse;whiteSpace=wrap;html=1;" vertex="1" parent="1">
          <mxGeometry x="504" y="850" width="120" height="80" as="geometry" />
        </mxCell>
        <mxCell id="3W7pm7vqjgpNa179hupT-30" style="edgeStyle=orthogonalEdgeStyle;rounded=0;orthogonalLoop=1;jettySize=auto;html=1;entryX=0.5;entryY=1;entryDx=0;entryDy=0;" edge="1" parent="1" source="3W7pm7vqjgpNa179hupT-27" target="3W7pm7vqjgpNa179hupT-14">
          <mxGeometry relative="1" as="geometry" />
        </mxCell>
        <mxCell id="3W7pm7vqjgpNa179hupT-27" value="Avisa Compra de Caneta" style="rounded=0;whiteSpace=wrap;html=1;" vertex="1" parent="1">
          <mxGeometry x="74" y="860" width="120" height="60" as="geometry" />
        </mxCell>
        <mxCell id="3W7pm7vqjgpNa179hupT-28" value="" style="shape=mxgraph.arrows2.wedgeArrowDashed2;html=1;bendable=0;startWidth=55;stepSize=15;rounded=0;entryX=0.5;entryY=0;entryDx=0;entryDy=0;" edge="1" parent="1" target="3W7pm7vqjgpNa179hupT-15">
          <mxGeometry width="100" height="100" relative="1" as="geometry">
            <mxPoint x="133.5" y="110" as="sourcePoint" />
            <mxPoint x="133.5" y="210" as="targetPoint" />
          </mxGeometry>
        </mxCell>
        <mxCell id="XSVlNQGZRukZP-qQR-Ol-1" value="" style="endArrow=classic;html=1;rounded=0;exitX=1;exitY=0;exitDx=0;exitDy=0;entryX=0.5;entryY=1;entryDx=0;entryDy=0;" edge="1" parent="1" source="3W7pm7vqjgpNa179hupT-23" target="3W7pm7vqjgpNa179hupT-22">
          <mxGeometry relative="1" as="geometry">
            <mxPoint x="644" y="649.68" as="sourcePoint" />
            <mxPoint x="744" y="649.68" as="targetPoint" />
            <Array as="points">
              <mxPoint x="694" y="622" />
            </Array>
          </mxGeometry>
        </mxCell>
        <mxCell id="XSVlNQGZRukZP-qQR-Ol-2" value="" style="shape=message;html=1;outlineConnect=0;" vertex="1" parent="XSVlNQGZRukZP-qQR-Ol-1">
          <mxGeometry width="20" height="14" relative="1" as="geometry">
            <mxPoint x="-10" y="-40" as="offset" />
          </mxGeometry>
        </mxCell>
        <mxCell id="XSVlNQGZRukZP-qQR-Ol-4" value="" style="endArrow=classic;html=1;rounded=0;entryX=0.5;entryY=1;entryDx=0;entryDy=0;exitX=0.5;exitY=0;exitDx=0;exitDy=0;" edge="1" parent="1" source="3W7pm7vqjgpNa179hupT-22" target="3W7pm7vqjgpNa179hupT-19">
          <mxGeometry relative="1" as="geometry">
            <mxPoint x="660" y="389.35" as="sourcePoint" />
            <mxPoint x="760" y="389.35" as="targetPoint" />
          </mxGeometry>
        </mxCell>
        <mxCell id="XSVlNQGZRukZP-qQR-Ol-5" value="" style="shape=message;html=1;outlineConnect=0;" vertex="1" parent="XSVlNQGZRukZP-qQR-Ol-4">
          <mxGeometry width="20" height="14" relative="1" as="geometry">
            <mxPoint x="-10" y="-7" as="offset" />
          </mxGeometry>
        </mxCell>
        <mxCell id="XSVlNQGZRukZP-qQR-Ol-12" value="" style="shape=image;verticalLabelPosition=bottom;labelBackgroundColor=default;verticalAlign=top;aspect=fixed;imageAspect=0;image=data:image/png,iVBORw0KGgoAAAANSUhEUgAAAQAAAAEACAYAAABccqhmAAARKUlEQVR4Xu2dTahdVxXH89Kmih8ZxY+JEx0VHUhS0Iq0iVhTCq1QIQidOCroQBxEWnUoamzmls4URIkIflVsLKQvddAQTJ0UR84EsWAGVlFi21zXzrtHb27ffXefc9bae629fxc2SZu91177v9b/d8697977dg7xQAEU6FaBnW5PzsFRAAUOAQCaAAU6VgAAdFx8jo4CAIAeQIGOFQAAHRefo6MAAKAHUKBjBQBAx8Xn6CgAAOgBFOhYAQDQcfE5OgoAAHoABTpWAAB0XHyOjgIAgB5AgY4VAAAdF5+jowAAoAdQoGMFAEDHxefoKAAA6AEU6FgBANBx8Tk6CgAAegAFOlYAAHRcfI6OAgCAHkCBjhUAAB0Xn6OjAACgB1CgYwUAQMfF5+goAADoARToWAEA0HHxHR499eNhGenPhYybyxzX/1/6Nx4KCgAABREJMVuBO5ZmzzX2AIo3Z+/ceQAA0HkDVD5+urIPV/mUyvtkfEzGR2R8QMbRZX6vyZ9/lvGKjKsy/rqS93qMykeKtT0AiFWvlrJNV/3hCv6w/P0Li8Xi0ZwD7uzs/FzmfV/GL5bzgUCOcPvMAQAThWPZZAVWzXqfRDknxr93SjQBwRVZ96SMy4BgioJ7L7bwQIFSCqya/zti/GTe2Q8BwVMS5AkgMF5KADBeM1ZMU2C45T8iy38q5n9kWpj9VwkEnpV/+ZyM/8hYfXqhuU1zsQBAcyV1eaDBkHdJds+J+U9ZZCkQ2JW4D8q4AQTyFAYAeToxa7oCRcw/pCcQSK8HnAYCeQUDAHk6MWuaAkXNDwTGFwkAjNeMFXkKVDE/EMgrzv90Gjed2SiQpUBV8wOBrBrdmsQdQL5WzMxTYNX8F+UFv5N5y2xm8ZrAwboCAJu+6zWqiyv/uvhAYHM7AoBerap/bpfm5+kAdwD6rU7EdQVcmx8IcAeAZe0UCGF+ILB/A/AUwM4YPUQOZX4g8NaWBAA92NTmjOav9i8/7Sc/SJj2acGDjs0Lg3vqAAAbc7Qe1fzKLwZ9WUQ8vhTymkDghLaoQAAAaPdUD/FKmP+aCLlu+N8LBO7RFrh3CHAHoN1RbcerZf5BVSCg3F8AQFnQhsPVNj8QMGguAGAgaoMhvZgfCCg3FwBQFrTBcN7MDwQUmwwAKIrZYCiv5gcCSs0GAJSEbDCMd/MDAYWmAwAKIjYYIor5gcDM5gMAMwVscHk08wOBGU0IAGaI1+DSqOYHAhObEQBMFK7BZdHNDwQmNCUAmCBag0taMT8QGNmcAGCkYA1OH8z/Djnbb+T99un39ak+5P32+723X3WPfYLxtuEMhQFAhkgNT1k1/yUxf/rV3KqPSubnTiCzigAgU6gGp63e9j/f0JV/vVTcCRzQvACgQWdnHKm15/zbjgwENigEALa1Tnv/3pv5eTrAHUB7Lp54ohLmX/0mn4lpmi3jTmBNWu4AzHrNXeAS5r8ip/64u5PfnhAQWNEDADjvVqX0zM2f8lx+iad3AKRUgcCysQCAksMchyli/uH8a1/m6VgWIHAL2p4rRG6zFShq/hUI1HjjzxSxur8TAABT2ibGmirmBwJ7CkT5tmEAEMPMY7Osan4gEAcCAGCstfzPd2F+IBADAgDAv6HHZOjK/EDAPwQAwBh7+Z7r0vxAwDcEAIBvU+dm59r8QMAvBABArsX8zgthfiDgEwIAwK+xczILZX4g4A8CACDHZj7nmJtffpb9Wzm6fFXA4rS2BJW/KGTMcUq8WeiwJHRzTFJacwGAlpJl46ya/6IY9KT29mLQFyXm8PVgu0Z79P6OwV3R+DMyXpdRBQIAQNs59vFKmP+yHOP+taO8IBA4pX087gR2nhVNH9bWNTceAMhVyse8WuYfTg8EFot7tFtBIPhdifmkjKG+2ltsjAcAikk9e6Pa5gcCewpYvSaQnsalO6+iTwUAwGxfFgngxfxAwAgCchfwkoT+RJFuWtkEAJRWfPx+3swPBOwg8FkJ/cuSTwUAwHhDllzh1fxAwAACchfwMwn7qIzky0WJRgMAJVSetod38wMBGwi8X8K+WgoCAGCaOa1XRTE/EFCGgNwFFH0aAACsrTw+fjTzAwFFCAgAviHhvi3jThlvjG+fcSsAwDi9rGdHNT8Q2FPgmrxZ6sScJhEAPC3rvySjyHsCAMCcaumujW5+ILCnwEsCgXuntoYA4Eey9jEZRV4IBABTK6W7rhXzAwEAoOuMDqK1Zv6eIcBTgA4Mq3nEEh/p3e+DPZpnOChWT58dUHmLMC8ClmrN+vu0euVfV7YHCMy+8g+i8WPA+sYskUEv5u/h6YCa+ZNYAgDeCFTCgRX3aP22f5O0Ld4JqNz2r1z9eStwRWOW2Lq3K3/LTwdUzb+8+hd9F+CtPUt0PXvcUqB387f0dED1tn9pfj4O3DAoMP/txY38dED9yr8EwEn5ky8EaRACmH//okaEgJX5z4lEX1u5SyxmA54C2EqN+Q/WNxIE1G/7l1f+X8mfj9i24eboAMBOecyfp20ECFiZf1ck4mvB8/ok1Kxef9Q3tUieIWB125+e76dfuHJDRtEvAl0tEncAU1t28zrMP01TjxAoYf4iH/vdVBIAMK1ZN63C/PP09ASB5s1/6zWIefVi9YoCmF+nHTxAoAvzAwCdhk1RML+elilSTQh0Y34AoNO0mF9Hx/UoNSDQlfkBwPzGxfzzNTwoQkkIdGd+ADCveTH/PP1yV1tB4GVJ4PgyCauf86/+qK/qq/38FCC33fLmYf48nbRmWUHgiiQo3+E5/Us8NxprZ8e9+bkDmNaemH+abnNXmUBgblL7rZcv9QhhfgAwvvqYf7xmmivcQyCS+QHAuNbE/OP0sprtFgLRzA8A8lsU8+drVWKmOwhEND8AyGtVzJ+nU+lZbiAQ1fwAYHvLYv7tGtWcsSuv4J+smUBk8wOAgzsH89d0Vv7e1SAQ3fwAYHOTYf58A3qYWRwCLZgfAOzfupjfg6XH51AMAq2YHwC8tckw/3jjeVpxWV4TuN8yoZbMDwBu7xTMb+mccrEvCgTSV22pP1ozPwD4f4tgfnW7VAtoAoAWzQ8A9noU81fzqvrGJk8BWjU/AMD86g6sGNDkjUEtm793AHDlr+hW5a0x/0RBe/1SUMw/sWEcLrMy/+/krA/ISN/b7/LLPDRq0SMAML9G5/iIYWX+q3K8UzL+1bL5e3wKgPl9GFcjCyvzpyv/gz2YvzcAYH4N2/mIYWX+MN/ko1WGXp4CYH6tjqkfB/Mr1qAHAGB+xYapHArzKxegdQBgfuWGqRgO8xuI3zIAML9Bw1QKifmNhG8VAJjfqGEqhMX8hqK3CADMb9gwhUNjfmPBWwMA5jdumILhMX8BsVsCAOYv0DCFtsD8hYRuBQCYv1DDFNgG8xcQediiBQBg/oINY7wV5jcWeD18dABg/sINY7gd5jcUd1PoyADA/BUaxmhLzG8k7LawUQGA+bdVNs6/Y/6KtYoIAMxfsWGUt8b8yoKODRcNAJh/bIX9zsf8DmoTCQCY30HDKKWA+ZWEnBsmCgAw/9xK+1mP+f3U4lAEAGB+Rw0zMxXMP1NA7eXeAYD5tSteLx7mr6f9xp09AwDzO2yYiSlh/onCWS/zCgDMb135cvExfzmtR+/kEQCYf3QZ3S7A/G5Ls5eYNwAclpxuyrhLxnPya57TL2dQfSx/15vp75BXTThuMMwfoHaeAID5AzRMZoqYP1Oo2tO8ACDlsViKka78p7WF4cqvrejGeJi/mNTzN/ICgOHq/4yY//H5x7o9AubXVnRjvF2p30nt3Vr/Fd3aeo2J5wEAw4t+n5fm+fGY5HPmYv4clVTmYH4VGcsGqQ2A4db/qJj/79pHx/zainLlL6ZooY1qA2C4+n9VAPCU5pkxv6aaB8biyl9Mav2NagMgnejIhQsX/nbmzJmjWsfD/FpKbo2D+bdK5HtCTQAML/x9Wq7+z2vJhPm1lNwaB/Nvlcj/hJoAGG7/vyUA+LqGVJhfQ8WsGPyoL0sm/5NqAmBQ59cCgIfmSoX55yqYvZ4rf7ZU/ifWBsCR8+fP/+Xs2bPH5kiF+eeoN2otV/5RcvmfXBsA75Sr/z/nyCTmf0HWq39mYE5Oja7F/A0WtjYA3i0AeG2OrgKAOctZm6cAt/15OoWbVds9AMB/y3Dl91+jyRkCgMnSdbEQ8zdeZgDQeIFnHA/zzxAvylIAEKVSZfPE/GX1rrYbAKgmvduNMb/b0ugnBgD0NY0cEfNHrt6E3AHABNEaXYL5Gy3sQccCAB0WfZ8jY/5O+wAAdFr4lWNj/o57AAB0XHw5Oubvu/7Vfy8A7wSs14CYv572bnbmDsBNKYomgvmLyu13MwDgtzZWmWF+K2UDxgUAAYs2I2XMP0O8FpcCgBaruv+ZMH8/tc4+KQDIlir0RMwfunx2yQMAO229RMb8XirhMA8A4LAoiilhfkUxWwwFAFqs6t6ZMH+7tVU7GQBQk9JVIMzvqhx+kwEAfmszNTPMP1W5DtcBgLaKjvnbqqf5aQCAucTFNsD8xaRuZyMA0EYtMX8bdSx+CgBQXHL1DTG/uqT9BAQAsWuN+WPXr3r2AKB6CSYngPknS8fCQQEAELMXMH/MurnLGgC4K8nWhDD/VomYkKsAAMhVysc8zO+jDs1kAQDilBLzx6lVmEwBQIxSYf4YdQqXJQDwXzLM779GYTMEAL5Lh/l91yd8dgDAbwkxv9/aNJMZAPBZSszvsy7NZQUA/JUU8/urSbMZAQBfpcX8vurRfDYAwE+JMb+fWnSTCQDwUWrM76MO3WUBAOqXHPPXr0G3GQCAuqXH/HX17353AFCvBTB/Pe3ZeakAAKjTCpcWi8WntLfe2dm5LDFPy7gh4w4Zb2rvQby2FKgNgHeJEf7RlqR1ToP56+gefdfaAHi7AODf0UWsnT/mr12BuPvXBkBS7rJA4L64EtbNHPPX1T/67jUBMDxH/Z4A4IvRhayRP+avoXpbe3oAwGMCgB+2Jav9aTC/vcY97FATAGnvhYz3CgBe7UFsrTNifi0liVMTAEn9wzJuynhGIPA45diuAObfrhEz8hXwAoC7BQB/zE+7z5mYv8+6W566NgDS2YYXA88JBJ6wPGzk2Jg/cvX85u4BAMNrAUdEpisCgeN+5aqTGeavo3sPu3oAwOprAR8SAPypB+Fzz4j5c5Vi3hQFvABg9anARwUCf5hymNbWYP7WKurvPJ4AkNS5U8YbMj4o4ycCghP+JCuTEeYvo3Pvu3gDwOqdQILBNwUCT/ZWJDH/JTnzQzL4VF9vxS98Xo8AWH1NIP39bhlf6eV9AmL+p+W8X17eCQ3vkyjcFmzXiwJeAZD0T7klAwyfaX+P/P0BGZ+U8eGWPkB07NixV65fv/6inOsHMq4umw/z9+LCiuf0DIBBlmSE9EjvGFx9vE3+I/3oMMIZDipxejt0+kj0ALp03vT/0uCBAqYKRDLPcEeQBGnxm27SG6KS6ddBZ9oABO9bgUgA6LtSnB4FDBQAAAaiEhIFoigAAKJUijxRwEABAGAgKiFRIIoCACBKpcgTBQwUAAAGohISBaIoAACiVIo8UcBAAQBgICohUSCKAgAgSqXIEwUMFAAABqISEgWiKAAAolSKPFHAQAEAYCAqIVEgigIAIEqlyBMFDBQAAAaiEhIFoigAAKJUijxRwEABAGAgKiFRIIoCACBKpcgTBQwUAAAGohISBaIoAACiVIo8UcBAAQBgICohUSCKAgAgSqXIEwUMFAAABqISEgWiKAAAolSKPFHAQAEAYCAqIVEgigIAIEqlyBMFDBQAAAaiEhIFoigAAKJUijxRwEABAGAgKiFRIIoCACBKpcgTBQwUAAAGohISBaIo8F+JFqSIswwi0gAAAABJRU5ErkJggg==;points=[];" vertex="1" parent="1">
          <mxGeometry x="350" y="50" width="30" height="30" as="geometry" />
        </mxCell>
        <mxCell id="XSVlNQGZRukZP-qQR-Ol-20" value="" style="shape=message;html=1;outlineConnect=0;" vertex="1" parent="1">
          <mxGeometry x="355" y="20.003684210526217" width="20" height="14" as="geometry" />
        </mxCell>
        <mxCell id="XSVlNQGZRukZP-qQR-Ol-22" value="" style="shape=image;verticalLabelPosition=bottom;labelBackgroundColor=default;verticalAlign=top;aspect=fixed;imageAspect=0;image=data:image/png,iVBORw0KGgoAAAANSUhEUgAAAQAAAAEACAYAAABccqhmAAARKUlEQVR4Xu2dTahdVxXH89Kmih8ZxY+JEx0VHUhS0Iq0iVhTCq1QIQidOCroQBxEWnUoamzmls4URIkIflVsLKQvddAQTJ0UR84EsWAGVlFi21zXzrtHb27ffXefc9bae629fxc2SZu91177v9b/d8697977dg7xQAEU6FaBnW5PzsFRAAUOAQCaAAU6VgAAdFx8jo4CAIAeQIGOFQAAHRefo6MAAKAHUKBjBQBAx8Xn6CgAAOgBFOhYAQDQcfE5OgoAAHoABTpWAAB0XHyOjgIAgB5AgY4VAAAdF5+jowAAoAdQoGMFAEDHxefoKAAA6AEU6FgBANBx8Tk6CgAAegAFOlYAAHRcfI6OAgCAHkCBjhUAAB0Xn6OjAACgB1CgYwUAQMfF5+goAADoARToWAEA0HHxHR499eNhGenPhYybyxzX/1/6Nx4KCgAABREJMVuBO5ZmzzX2AIo3Z+/ceQAA0HkDVD5+urIPV/mUyvtkfEzGR2R8QMbRZX6vyZ9/lvGKjKsy/rqS93qMykeKtT0AiFWvlrJNV/3hCv6w/P0Li8Xi0ZwD7uzs/FzmfV/GL5bzgUCOcPvMAQAThWPZZAVWzXqfRDknxr93SjQBwRVZ96SMy4BgioJ7L7bwQIFSCqya/zti/GTe2Q8BwVMS5AkgMF5KADBeM1ZMU2C45T8iy38q5n9kWpj9VwkEnpV/+ZyM/8hYfXqhuU1zsQBAcyV1eaDBkHdJds+J+U9ZZCkQ2JW4D8q4AQTyFAYAeToxa7oCRcw/pCcQSK8HnAYCeQUDAHk6MWuaAkXNDwTGFwkAjNeMFXkKVDE/EMgrzv90Gjed2SiQpUBV8wOBrBrdmsQdQL5WzMxTYNX8F+UFv5N5y2xm8ZrAwboCAJu+6zWqiyv/uvhAYHM7AoBerap/bpfm5+kAdwD6rU7EdQVcmx8IcAeAZe0UCGF+ILB/A/AUwM4YPUQOZX4g8NaWBAA92NTmjOav9i8/7Sc/SJj2acGDjs0Lg3vqAAAbc7Qe1fzKLwZ9WUQ8vhTymkDghLaoQAAAaPdUD/FKmP+aCLlu+N8LBO7RFrh3CHAHoN1RbcerZf5BVSCg3F8AQFnQhsPVNj8QMGguAGAgaoMhvZgfCCg3FwBQFrTBcN7MDwQUmwwAKIrZYCiv5gcCSs0GAJSEbDCMd/MDAYWmAwAKIjYYIor5gcDM5gMAMwVscHk08wOBGU0IAGaI1+DSqOYHAhObEQBMFK7BZdHNDwQmNCUAmCBag0taMT8QGNmcAGCkYA1OH8z/Djnbb+T99un39ak+5P32+723X3WPfYLxtuEMhQFAhkgNT1k1/yUxf/rV3KqPSubnTiCzigAgU6gGp63e9j/f0JV/vVTcCRzQvACgQWdnHKm15/zbjgwENigEALa1Tnv/3pv5eTrAHUB7Lp54ohLmX/0mn4lpmi3jTmBNWu4AzHrNXeAS5r8ip/64u5PfnhAQWNEDADjvVqX0zM2f8lx+iad3AKRUgcCysQCAksMchyli/uH8a1/m6VgWIHAL2p4rRG6zFShq/hUI1HjjzxSxur8TAABT2ibGmirmBwJ7CkT5tmEAEMPMY7Osan4gEAcCAGCstfzPd2F+IBADAgDAv6HHZOjK/EDAPwQAwBh7+Z7r0vxAwDcEAIBvU+dm59r8QMAvBABArsX8zgthfiDgEwIAwK+xczILZX4g4A8CACDHZj7nmJtffpb9Wzm6fFXA4rS2BJW/KGTMcUq8WeiwJHRzTFJacwGAlpJl46ya/6IY9KT29mLQFyXm8PVgu0Z79P6OwV3R+DMyXpdRBQIAQNs59vFKmP+yHOP+taO8IBA4pX087gR2nhVNH9bWNTceAMhVyse8WuYfTg8EFot7tFtBIPhdifmkjKG+2ltsjAcAikk9e6Pa5gcCewpYvSaQnsalO6+iTwUAwGxfFgngxfxAwAgCchfwkoT+RJFuWtkEAJRWfPx+3swPBOwg8FkJ/cuSTwUAwHhDllzh1fxAwAACchfwMwn7qIzky0WJRgMAJVSetod38wMBGwi8X8K+WgoCAGCaOa1XRTE/EFCGgNwFFH0aAACsrTw+fjTzAwFFCAgAviHhvi3jThlvjG+fcSsAwDi9rGdHNT8Q2FPgmrxZ6sScJhEAPC3rvySjyHsCAMCcaumujW5+ILCnwEsCgXuntoYA4Eey9jEZRV4IBABTK6W7rhXzAwEAoOuMDqK1Zv6eIcBTgA4Mq3nEEh/p3e+DPZpnOChWT58dUHmLMC8ClmrN+vu0euVfV7YHCMy+8g+i8WPA+sYskUEv5u/h6YCa+ZNYAgDeCFTCgRX3aP22f5O0Ld4JqNz2r1z9eStwRWOW2Lq3K3/LTwdUzb+8+hd9F+CtPUt0PXvcUqB387f0dED1tn9pfj4O3DAoMP/txY38dED9yr8EwEn5ky8EaRACmH//okaEgJX5z4lEX1u5SyxmA54C2EqN+Q/WNxIE1G/7l1f+X8mfj9i24eboAMBOecyfp20ECFiZf1ck4mvB8/ok1Kxef9Q3tUieIWB125+e76dfuHJDRtEvAl0tEncAU1t28zrMP01TjxAoYf4iH/vdVBIAMK1ZN63C/PP09ASB5s1/6zWIefVi9YoCmF+nHTxAoAvzAwCdhk1RML+elilSTQh0Y34AoNO0mF9Hx/UoNSDQlfkBwPzGxfzzNTwoQkkIdGd+ADCveTH/PP1yV1tB4GVJ4PgyCauf86/+qK/qq/38FCC33fLmYf48nbRmWUHgiiQo3+E5/Us8NxprZ8e9+bkDmNaemH+abnNXmUBgblL7rZcv9QhhfgAwvvqYf7xmmivcQyCS+QHAuNbE/OP0sprtFgLRzA8A8lsU8+drVWKmOwhEND8AyGtVzJ+nU+lZbiAQ1fwAYHvLYv7tGtWcsSuv4J+smUBk8wOAgzsH89d0Vv7e1SAQ3fwAYHOTYf58A3qYWRwCLZgfAOzfupjfg6XH51AMAq2YHwC8tckw/3jjeVpxWV4TuN8yoZbMDwBu7xTMb+mccrEvCgTSV22pP1ozPwD4f4tgfnW7VAtoAoAWzQ8A9noU81fzqvrGJk8BWjU/AMD86g6sGNDkjUEtm793AHDlr+hW5a0x/0RBe/1SUMw/sWEcLrMy/+/krA/ISN/b7/LLPDRq0SMAML9G5/iIYWX+q3K8UzL+1bL5e3wKgPl9GFcjCyvzpyv/gz2YvzcAYH4N2/mIYWX+MN/ko1WGXp4CYH6tjqkfB/Mr1qAHAGB+xYapHArzKxegdQBgfuWGqRgO8xuI3zIAML9Bw1QKifmNhG8VAJjfqGEqhMX8hqK3CADMb9gwhUNjfmPBWwMA5jdumILhMX8BsVsCAOYv0DCFtsD8hYRuBQCYv1DDFNgG8xcQediiBQBg/oINY7wV5jcWeD18dABg/sINY7gd5jcUd1PoyADA/BUaxmhLzG8k7LawUQGA+bdVNs6/Y/6KtYoIAMxfsWGUt8b8yoKODRcNAJh/bIX9zsf8DmoTCQCY30HDKKWA+ZWEnBsmCgAw/9xK+1mP+f3U4lAEAGB+Rw0zMxXMP1NA7eXeAYD5tSteLx7mr6f9xp09AwDzO2yYiSlh/onCWS/zCgDMb135cvExfzmtR+/kEQCYf3QZ3S7A/G5Ls5eYNwAclpxuyrhLxnPya57TL2dQfSx/15vp75BXTThuMMwfoHaeAID5AzRMZoqYP1Oo2tO8ACDlsViKka78p7WF4cqvrejGeJi/mNTzN/ICgOHq/4yY//H5x7o9AubXVnRjvF2p30nt3Vr/Fd3aeo2J5wEAw4t+n5fm+fGY5HPmYv4clVTmYH4VGcsGqQ2A4db/qJj/79pHx/zainLlL6ZooY1qA2C4+n9VAPCU5pkxv6aaB8biyl9Mav2NagMgnejIhQsX/nbmzJmjWsfD/FpKbo2D+bdK5HtCTQAML/x9Wq7+z2vJhPm1lNwaB/Nvlcj/hJoAGG7/vyUA+LqGVJhfQ8WsGPyoL0sm/5NqAmBQ59cCgIfmSoX55yqYvZ4rf7ZU/ifWBsCR8+fP/+Xs2bPH5kiF+eeoN2otV/5RcvmfXBsA75Sr/z/nyCTmf0HWq39mYE5Oja7F/A0WtjYA3i0AeG2OrgKAOctZm6cAt/15OoWbVds9AMB/y3Dl91+jyRkCgMnSdbEQ8zdeZgDQeIFnHA/zzxAvylIAEKVSZfPE/GX1rrYbAKgmvduNMb/b0ugnBgD0NY0cEfNHrt6E3AHABNEaXYL5Gy3sQccCAB0WfZ8jY/5O+wAAdFr4lWNj/o57AAB0XHw5Oubvu/7Vfy8A7wSs14CYv572bnbmDsBNKYomgvmLyu13MwDgtzZWmWF+K2UDxgUAAYs2I2XMP0O8FpcCgBaruv+ZMH8/tc4+KQDIlir0RMwfunx2yQMAO229RMb8XirhMA8A4LAoiilhfkUxWwwFAFqs6t6ZMH+7tVU7GQBQk9JVIMzvqhx+kwEAfmszNTPMP1W5DtcBgLaKjvnbqqf5aQCAucTFNsD8xaRuZyMA0EYtMX8bdSx+CgBQXHL1DTG/uqT9BAQAsWuN+WPXr3r2AKB6CSYngPknS8fCQQEAELMXMH/MurnLGgC4K8nWhDD/VomYkKsAAMhVysc8zO+jDs1kAQDilBLzx6lVmEwBQIxSYf4YdQqXJQDwXzLM779GYTMEAL5Lh/l91yd8dgDAbwkxv9/aNJMZAPBZSszvsy7NZQUA/JUU8/urSbMZAQBfpcX8vurRfDYAwE+JMb+fWnSTCQDwUWrM76MO3WUBAOqXHPPXr0G3GQCAuqXH/HX17353AFCvBTB/Pe3ZeakAAKjTCpcWi8WntLfe2dm5LDFPy7gh4w4Zb2rvQby2FKgNgHeJEf7RlqR1ToP56+gefdfaAHi7AODf0UWsnT/mr12BuPvXBkBS7rJA4L64EtbNHPPX1T/67jUBMDxH/Z4A4IvRhayRP+avoXpbe3oAwGMCgB+2Jav9aTC/vcY97FATAGnvhYz3CgBe7UFsrTNifi0liVMTAEn9wzJuynhGIPA45diuAObfrhEz8hXwAoC7BQB/zE+7z5mYv8+6W566NgDS2YYXA88JBJ6wPGzk2Jg/cvX85u4BAMNrAUdEpisCgeN+5aqTGeavo3sPu3oAwOprAR8SAPypB+Fzz4j5c5Vi3hQFvABg9anARwUCf5hymNbWYP7WKurvPJ4AkNS5U8YbMj4o4ycCghP+JCuTEeYvo3Pvu3gDwOqdQILBNwUCT/ZWJDH/JTnzQzL4VF9vxS98Xo8AWH1NIP39bhlf6eV9AmL+p+W8X17eCQ3vkyjcFmzXiwJeAZD0T7klAwyfaX+P/P0BGZ+U8eGWPkB07NixV65fv/6inOsHMq4umw/z9+LCiuf0DIBBlmSE9EjvGFx9vE3+I/3oMMIZDipxejt0+kj0ALp03vT/0uCBAqYKRDLPcEeQBGnxm27SG6KS6ddBZ9oABO9bgUgA6LtSnB4FDBQAAAaiEhIFoigAAKJUijxRwEABAGAgKiFRIIoCACBKpcgTBQwUAAAGohISBaIoAACiVIo8UcBAAQBgICohUSCKAgAgSqXIEwUMFAAABqISEgWiKAAAolSKPFHAQAEAYCAqIVEgigIAIEqlyBMFDBQAAAaiEhIFoigAAKJUijxRwEABAGAgKiFRIIoCACBKpcgTBQwUAAAGohISBaIoAACiVIo8UcBAAQBgICohUSCKAgAgSqXIEwUMFAAABqISEgWiKAAAolSKPFHAQAEAYCAqIVEgigIAIEqlyBMFDBQAAAaiEhIFoigAAKJUijxRwEABAGAgKiFRIIoCACBKpcgTBQwUAAAGohISBaIo8F+JFqSIswwi0gAAAABJRU5ErkJggg==;points=[];" vertex="1" parent="1">
          <mxGeometry x="269" y="190" width="30" height="30" as="geometry" />
        </mxCell>
        <mxCell id="XSVlNQGZRukZP-qQR-Ol-23" value="" style="shape=image;verticalLabelPosition=bottom;labelBackgroundColor=default;verticalAlign=top;aspect=fixed;imageAspect=0;image=data:image/png,iVBORw0KGgoAAAANSUhEUgAAAQAAAAEACAYAAABccqhmAAARKUlEQVR4Xu2dTahdVxXH89Kmih8ZxY+JEx0VHUhS0Iq0iVhTCq1QIQidOCroQBxEWnUoamzmls4URIkIflVsLKQvddAQTJ0UR84EsWAGVlFi21zXzrtHb27ffXefc9bae629fxc2SZu91177v9b/d8697977dg7xQAEU6FaBnW5PzsFRAAUOAQCaAAU6VgAAdFx8jo4CAIAeQIGOFQAAHRefo6MAAKAHUKBjBQBAx8Xn6CgAAOgBFOhYAQDQcfE5OgoAAHoABTpWAAB0XHyOjgIAgB5AgY4VAAAdF5+jowAAoAdQoGMFAEDHxefoKAAA6AEU6FgBANBx8Tk6CgAAegAFOlYAAHRcfI6OAgCAHkCBjhUAAB0Xn6OjAACgB1CgYwUAQMfF5+goAADoARToWAEA0HHxHR499eNhGenPhYybyxzX/1/6Nx4KCgAABREJMVuBO5ZmzzX2AIo3Z+/ceQAA0HkDVD5+urIPV/mUyvtkfEzGR2R8QMbRZX6vyZ9/lvGKjKsy/rqS93qMykeKtT0AiFWvlrJNV/3hCv6w/P0Li8Xi0ZwD7uzs/FzmfV/GL5bzgUCOcPvMAQAThWPZZAVWzXqfRDknxr93SjQBwRVZ96SMy4BgioJ7L7bwQIFSCqya/zti/GTe2Q8BwVMS5AkgMF5KADBeM1ZMU2C45T8iy38q5n9kWpj9VwkEnpV/+ZyM/8hYfXqhuU1zsQBAcyV1eaDBkHdJds+J+U9ZZCkQ2JW4D8q4AQTyFAYAeToxa7oCRcw/pCcQSK8HnAYCeQUDAHk6MWuaAkXNDwTGFwkAjNeMFXkKVDE/EMgrzv90Gjed2SiQpUBV8wOBrBrdmsQdQL5WzMxTYNX8F+UFv5N5y2xm8ZrAwboCAJu+6zWqiyv/uvhAYHM7AoBerap/bpfm5+kAdwD6rU7EdQVcmx8IcAeAZe0UCGF+ILB/A/AUwM4YPUQOZX4g8NaWBAA92NTmjOav9i8/7Sc/SJj2acGDjs0Lg3vqAAAbc7Qe1fzKLwZ9WUQ8vhTymkDghLaoQAAAaPdUD/FKmP+aCLlu+N8LBO7RFrh3CHAHoN1RbcerZf5BVSCg3F8AQFnQhsPVNj8QMGguAGAgaoMhvZgfCCg3FwBQFrTBcN7MDwQUmwwAKIrZYCiv5gcCSs0GAJSEbDCMd/MDAYWmAwAKIjYYIor5gcDM5gMAMwVscHk08wOBGU0IAGaI1+DSqOYHAhObEQBMFK7BZdHNDwQmNCUAmCBag0taMT8QGNmcAGCkYA1OH8z/Djnbb+T99un39ak+5P32+723X3WPfYLxtuEMhQFAhkgNT1k1/yUxf/rV3KqPSubnTiCzigAgU6gGp63e9j/f0JV/vVTcCRzQvACgQWdnHKm15/zbjgwENigEALa1Tnv/3pv5eTrAHUB7Lp54ohLmX/0mn4lpmi3jTmBNWu4AzHrNXeAS5r8ip/64u5PfnhAQWNEDADjvVqX0zM2f8lx+iad3AKRUgcCysQCAksMchyli/uH8a1/m6VgWIHAL2p4rRG6zFShq/hUI1HjjzxSxur8TAABT2ibGmirmBwJ7CkT5tmEAEMPMY7Osan4gEAcCAGCstfzPd2F+IBADAgDAv6HHZOjK/EDAPwQAwBh7+Z7r0vxAwDcEAIBvU+dm59r8QMAvBABArsX8zgthfiDgEwIAwK+xczILZX4g4A8CACDHZj7nmJtffpb9Wzm6fFXA4rS2BJW/KGTMcUq8WeiwJHRzTFJacwGAlpJl46ya/6IY9KT29mLQFyXm8PVgu0Z79P6OwV3R+DMyXpdRBQIAQNs59vFKmP+yHOP+taO8IBA4pX087gR2nhVNH9bWNTceAMhVyse8WuYfTg8EFot7tFtBIPhdifmkjKG+2ltsjAcAikk9e6Pa5gcCewpYvSaQnsalO6+iTwUAwGxfFgngxfxAwAgCchfwkoT+RJFuWtkEAJRWfPx+3swPBOwg8FkJ/cuSTwUAwHhDllzh1fxAwAACchfwMwn7qIzky0WJRgMAJVSetod38wMBGwi8X8K+WgoCAGCaOa1XRTE/EFCGgNwFFH0aAACsrTw+fjTzAwFFCAgAviHhvi3jThlvjG+fcSsAwDi9rGdHNT8Q2FPgmrxZ6sScJhEAPC3rvySjyHsCAMCcaumujW5+ILCnwEsCgXuntoYA4Eey9jEZRV4IBABTK6W7rhXzAwEAoOuMDqK1Zv6eIcBTgA4Mq3nEEh/p3e+DPZpnOChWT58dUHmLMC8ClmrN+vu0euVfV7YHCMy+8g+i8WPA+sYskUEv5u/h6YCa+ZNYAgDeCFTCgRX3aP22f5O0Ld4JqNz2r1z9eStwRWOW2Lq3K3/LTwdUzb+8+hd9F+CtPUt0PXvcUqB387f0dED1tn9pfj4O3DAoMP/txY38dED9yr8EwEn5ky8EaRACmH//okaEgJX5z4lEX1u5SyxmA54C2EqN+Q/WNxIE1G/7l1f+X8mfj9i24eboAMBOecyfp20ECFiZf1ck4mvB8/ok1Kxef9Q3tUieIWB125+e76dfuHJDRtEvAl0tEncAU1t28zrMP01TjxAoYf4iH/vdVBIAMK1ZN63C/PP09ASB5s1/6zWIefVi9YoCmF+nHTxAoAvzAwCdhk1RML+elilSTQh0Y34AoNO0mF9Hx/UoNSDQlfkBwPzGxfzzNTwoQkkIdGd+ADCveTH/PP1yV1tB4GVJ4PgyCauf86/+qK/qq/38FCC33fLmYf48nbRmWUHgiiQo3+E5/Us8NxprZ8e9+bkDmNaemH+abnNXmUBgblL7rZcv9QhhfgAwvvqYf7xmmivcQyCS+QHAuNbE/OP0sprtFgLRzA8A8lsU8+drVWKmOwhEND8AyGtVzJ+nU+lZbiAQ1fwAYHvLYv7tGtWcsSuv4J+smUBk8wOAgzsH89d0Vv7e1SAQ3fwAYHOTYf58A3qYWRwCLZgfAOzfupjfg6XH51AMAq2YHwC8tckw/3jjeVpxWV4TuN8yoZbMDwBu7xTMb+mccrEvCgTSV22pP1ozPwD4f4tgfnW7VAtoAoAWzQ8A9noU81fzqvrGJk8BWjU/AMD86g6sGNDkjUEtm793AHDlr+hW5a0x/0RBe/1SUMw/sWEcLrMy/+/krA/ISN/b7/LLPDRq0SMAML9G5/iIYWX+q3K8UzL+1bL5e3wKgPl9GFcjCyvzpyv/gz2YvzcAYH4N2/mIYWX+MN/ko1WGXp4CYH6tjqkfB/Mr1qAHAGB+xYapHArzKxegdQBgfuWGqRgO8xuI3zIAML9Bw1QKifmNhG8VAJjfqGEqhMX8hqK3CADMb9gwhUNjfmPBWwMA5jdumILhMX8BsVsCAOYv0DCFtsD8hYRuBQCYv1DDFNgG8xcQediiBQBg/oINY7wV5jcWeD18dABg/sINY7gd5jcUd1PoyADA/BUaxmhLzG8k7LawUQGA+bdVNs6/Y/6KtYoIAMxfsWGUt8b8yoKODRcNAJh/bIX9zsf8DmoTCQCY30HDKKWA+ZWEnBsmCgAw/9xK+1mP+f3U4lAEAGB+Rw0zMxXMP1NA7eXeAYD5tSteLx7mr6f9xp09AwDzO2yYiSlh/onCWS/zCgDMb135cvExfzmtR+/kEQCYf3QZ3S7A/G5Ls5eYNwAclpxuyrhLxnPya57TL2dQfSx/15vp75BXTThuMMwfoHaeAID5AzRMZoqYP1Oo2tO8ACDlsViKka78p7WF4cqvrejGeJi/mNTzN/ICgOHq/4yY//H5x7o9AubXVnRjvF2p30nt3Vr/Fd3aeo2J5wEAw4t+n5fm+fGY5HPmYv4clVTmYH4VGcsGqQ2A4db/qJj/79pHx/zainLlL6ZooY1qA2C4+n9VAPCU5pkxv6aaB8biyl9Mav2NagMgnejIhQsX/nbmzJmjWsfD/FpKbo2D+bdK5HtCTQAML/x9Wq7+z2vJhPm1lNwaB/Nvlcj/hJoAGG7/vyUA+LqGVJhfQ8WsGPyoL0sm/5NqAmBQ59cCgIfmSoX55yqYvZ4rf7ZU/ifWBsCR8+fP/+Xs2bPH5kiF+eeoN2otV/5RcvmfXBsA75Sr/z/nyCTmf0HWq39mYE5Oja7F/A0WtjYA3i0AeG2OrgKAOctZm6cAt/15OoWbVds9AMB/y3Dl91+jyRkCgMnSdbEQ8zdeZgDQeIFnHA/zzxAvylIAEKVSZfPE/GX1rrYbAKgmvduNMb/b0ugnBgD0NY0cEfNHrt6E3AHABNEaXYL5Gy3sQccCAB0WfZ8jY/5O+wAAdFr4lWNj/o57AAB0XHw5Oubvu/7Vfy8A7wSs14CYv572bnbmDsBNKYomgvmLyu13MwDgtzZWmWF+K2UDxgUAAYs2I2XMP0O8FpcCgBaruv+ZMH8/tc4+KQDIlir0RMwfunx2yQMAO229RMb8XirhMA8A4LAoiilhfkUxWwwFAFqs6t6ZMH+7tVU7GQBQk9JVIMzvqhx+kwEAfmszNTPMP1W5DtcBgLaKjvnbqqf5aQCAucTFNsD8xaRuZyMA0EYtMX8bdSx+CgBQXHL1DTG/uqT9BAQAsWuN+WPXr3r2AKB6CSYngPknS8fCQQEAELMXMH/MurnLGgC4K8nWhDD/VomYkKsAAMhVysc8zO+jDs1kAQDilBLzx6lVmEwBQIxSYf4YdQqXJQDwXzLM779GYTMEAL5Lh/l91yd8dgDAbwkxv9/aNJMZAPBZSszvsy7NZQUA/JUU8/urSbMZAQBfpcX8vurRfDYAwE+JMb+fWnSTCQDwUWrM76MO3WUBAOqXHPPXr0G3GQCAuqXH/HX17353AFCvBTB/Pe3ZeakAAKjTCpcWi8WntLfe2dm5LDFPy7gh4w4Zb2rvQby2FKgNgHeJEf7RlqR1ToP56+gefdfaAHi7AODf0UWsnT/mr12BuPvXBkBS7rJA4L64EtbNHPPX1T/67jUBMDxH/Z4A4IvRhayRP+avoXpbe3oAwGMCgB+2Jav9aTC/vcY97FATAGnvhYz3CgBe7UFsrTNifi0liVMTAEn9wzJuynhGIPA45diuAObfrhEz8hXwAoC7BQB/zE+7z5mYv8+6W566NgDS2YYXA88JBJ6wPGzk2Jg/cvX85u4BAMNrAUdEpisCgeN+5aqTGeavo3sPu3oAwOprAR8SAPypB+Fzz4j5c5Vi3hQFvABg9anARwUCf5hymNbWYP7WKurvPJ4AkNS5U8YbMj4o4ycCghP+JCuTEeYvo3Pvu3gDwOqdQILBNwUCT/ZWJDH/JTnzQzL4VF9vxS98Xo8AWH1NIP39bhlf6eV9AmL+p+W8X17eCQ3vkyjcFmzXiwJeAZD0T7klAwyfaX+P/P0BGZ+U8eGWPkB07NixV65fv/6inOsHMq4umw/z9+LCiuf0DIBBlmSE9EjvGFx9vE3+I/3oMMIZDipxejt0+kj0ALp03vT/0uCBAqYKRDLPcEeQBGnxm27SG6KS6ddBZ9oABO9bgUgA6LtSnB4FDBQAAAaiEhIFoigAAKJUijxRwEABAGAgKiFRIIoCACBKpcgTBQwUAAAGohISBaIoAACiVIo8UcBAAQBgICohUSCKAgAgSqXIEwUMFAAABqISEgWiKAAAolSKPFHAQAEAYCAqIVEgigIAIEqlyBMFDBQAAAaiEhIFoigAAKJUijxRwEABAGAgKiFRIIoCACBKpcgTBQwUAAAGohISBaIoAACiVIo8UcBAAQBgICohUSCKAgAgSqXIEwUMFAAABqISEgWiKAAAolSKPFHAQAEAYCAqIVEgigIAIEqlyBMFDBQAAAaiEhIFoigAAKJUijxRwEABAGAgKiFRIIoCACBKpcgTBQwUAAAGohISBaIo8F+JFqSIswwi0gAAAABJRU5ErkJggg==;points=[];" vertex="1" parent="1">
          <mxGeometry x="270" y="328" width="30" height="30" as="geometry" />
        </mxCell>
        <mxCell id="XSVlNQGZRukZP-qQR-Ol-26" value="" style="shape=image;verticalLabelPosition=bottom;labelBackgroundColor=default;verticalAlign=top;aspect=fixed;imageAspect=0;image=data:image/png,iVBORw0KGgoAAAANSUhEUgAAAQAAAAEACAYAAABccqhmAAARKUlEQVR4Xu2dTahdVxXH89Kmih8ZxY+JEx0VHUhS0Iq0iVhTCq1QIQidOCroQBxEWnUoamzmls4URIkIflVsLKQvddAQTJ0UR84EsWAGVlFi21zXzrtHb27ffXefc9bae629fxc2SZu91177v9b/d8697977dg7xQAEU6FaBnW5PzsFRAAUOAQCaAAU6VgAAdFx8jo4CAIAeQIGOFQAAHRefo6MAAKAHUKBjBQBAx8Xn6CgAAOgBFOhYAQDQcfE5OgoAAHoABTpWAAB0XHyOjgIAgB5AgY4VAAAdF5+jowAAoAdQoGMFAEDHxefoKAAA6AEU6FgBANBx8Tk6CgAAegAFOlYAAHRcfI6OAgCAHkCBjhUAAB0Xn6OjAACgB1CgYwUAQMfF5+goAADoARToWAEA0HHxHR499eNhGenPhYybyxzX/1/6Nx4KCgAABREJMVuBO5ZmzzX2AIo3Z+/ceQAA0HkDVD5+urIPV/mUyvtkfEzGR2R8QMbRZX6vyZ9/lvGKjKsy/rqS93qMykeKtT0AiFWvlrJNV/3hCv6w/P0Li8Xi0ZwD7uzs/FzmfV/GL5bzgUCOcPvMAQAThWPZZAVWzXqfRDknxr93SjQBwRVZ96SMy4BgioJ7L7bwQIFSCqya/zti/GTe2Q8BwVMS5AkgMF5KADBeM1ZMU2C45T8iy38q5n9kWpj9VwkEnpV/+ZyM/8hYfXqhuU1zsQBAcyV1eaDBkHdJds+J+U9ZZCkQ2JW4D8q4AQTyFAYAeToxa7oCRcw/pCcQSK8HnAYCeQUDAHk6MWuaAkXNDwTGFwkAjNeMFXkKVDE/EMgrzv90Gjed2SiQpUBV8wOBrBrdmsQdQL5WzMxTYNX8F+UFv5N5y2xm8ZrAwboCAJu+6zWqiyv/uvhAYHM7AoBerap/bpfm5+kAdwD6rU7EdQVcmx8IcAeAZe0UCGF+ILB/A/AUwM4YPUQOZX4g8NaWBAA92NTmjOav9i8/7Sc/SJj2acGDjs0Lg3vqAAAbc7Qe1fzKLwZ9WUQ8vhTymkDghLaoQAAAaPdUD/FKmP+aCLlu+N8LBO7RFrh3CHAHoN1RbcerZf5BVSCg3F8AQFnQhsPVNj8QMGguAGAgaoMhvZgfCCg3FwBQFrTBcN7MDwQUmwwAKIrZYCiv5gcCSs0GAJSEbDCMd/MDAYWmAwAKIjYYIor5gcDM5gMAMwVscHk08wOBGU0IAGaI1+DSqOYHAhObEQBMFK7BZdHNDwQmNCUAmCBag0taMT8QGNmcAGCkYA1OH8z/Djnbb+T99un39ak+5P32+723X3WPfYLxtuEMhQFAhkgNT1k1/yUxf/rV3KqPSubnTiCzigAgU6gGp63e9j/f0JV/vVTcCRzQvACgQWdnHKm15/zbjgwENigEALa1Tnv/3pv5eTrAHUB7Lp54ohLmX/0mn4lpmi3jTmBNWu4AzHrNXeAS5r8ip/64u5PfnhAQWNEDADjvVqX0zM2f8lx+iad3AKRUgcCysQCAksMchyli/uH8a1/m6VgWIHAL2p4rRG6zFShq/hUI1HjjzxSxur8TAABT2ibGmirmBwJ7CkT5tmEAEMPMY7Osan4gEAcCAGCstfzPd2F+IBADAgDAv6HHZOjK/EDAPwQAwBh7+Z7r0vxAwDcEAIBvU+dm59r8QMAvBABArsX8zgthfiDgEwIAwK+xczILZX4g4A8CACDHZj7nmJtffpb9Wzm6fFXA4rS2BJW/KGTMcUq8WeiwJHRzTFJacwGAlpJl46ya/6IY9KT29mLQFyXm8PVgu0Z79P6OwV3R+DMyXpdRBQIAQNs59vFKmP+yHOP+taO8IBA4pX087gR2nhVNH9bWNTceAMhVyse8WuYfTg8EFot7tFtBIPhdifmkjKG+2ltsjAcAikk9e6Pa5gcCewpYvSaQnsalO6+iTwUAwGxfFgngxfxAwAgCchfwkoT+RJFuWtkEAJRWfPx+3swPBOwg8FkJ/cuSTwUAwHhDllzh1fxAwAACchfwMwn7qIzky0WJRgMAJVSetod38wMBGwi8X8K+WgoCAGCaOa1XRTE/EFCGgNwFFH0aAACsrTw+fjTzAwFFCAgAviHhvi3jThlvjG+fcSsAwDi9rGdHNT8Q2FPgmrxZ6sScJhEAPC3rvySjyHsCAMCcaumujW5+ILCnwEsCgXuntoYA4Eey9jEZRV4IBABTK6W7rhXzAwEAoOuMDqK1Zv6eIcBTgA4Mq3nEEh/p3e+DPZpnOChWT58dUHmLMC8ClmrN+vu0euVfV7YHCMy+8g+i8WPA+sYskUEv5u/h6YCa+ZNYAgDeCFTCgRX3aP22f5O0Ld4JqNz2r1z9eStwRWOW2Lq3K3/LTwdUzb+8+hd9F+CtPUt0PXvcUqB387f0dED1tn9pfj4O3DAoMP/txY38dED9yr8EwEn5ky8EaRACmH//okaEgJX5z4lEX1u5SyxmA54C2EqN+Q/WNxIE1G/7l1f+X8mfj9i24eboAMBOecyfp20ECFiZf1ck4mvB8/ok1Kxef9Q3tUieIWB125+e76dfuHJDRtEvAl0tEncAU1t28zrMP01TjxAoYf4iH/vdVBIAMK1ZN63C/PP09ASB5s1/6zWIefVi9YoCmF+nHTxAoAvzAwCdhk1RML+elilSTQh0Y34AoNO0mF9Hx/UoNSDQlfkBwPzGxfzzNTwoQkkIdGd+ADCveTH/PP1yV1tB4GVJ4PgyCauf86/+qK/qq/38FCC33fLmYf48nbRmWUHgiiQo3+E5/Us8NxprZ8e9+bkDmNaemH+abnNXmUBgblL7rZcv9QhhfgAwvvqYf7xmmivcQyCS+QHAuNbE/OP0sprtFgLRzA8A8lsU8+drVWKmOwhEND8AyGtVzJ+nU+lZbiAQ1fwAYHvLYv7tGtWcsSuv4J+smUBk8wOAgzsH89d0Vv7e1SAQ3fwAYHOTYf58A3qYWRwCLZgfAOzfupjfg6XH51AMAq2YHwC8tckw/3jjeVpxWV4TuN8yoZbMDwBu7xTMb+mccrEvCgTSV22pP1ozPwD4f4tgfnW7VAtoAoAWzQ8A9noU81fzqvrGJk8BWjU/AMD86g6sGNDkjUEtm793AHDlr+hW5a0x/0RBe/1SUMw/sWEcLrMy/+/krA/ISN/b7/LLPDRq0SMAML9G5/iIYWX+q3K8UzL+1bL5e3wKgPl9GFcjCyvzpyv/gz2YvzcAYH4N2/mIYWX+MN/ko1WGXp4CYH6tjqkfB/Mr1qAHAGB+xYapHArzKxegdQBgfuWGqRgO8xuI3zIAML9Bw1QKifmNhG8VAJjfqGEqhMX8hqK3CADMb9gwhUNjfmPBWwMA5jdumILhMX8BsVsCAOYv0DCFtsD8hYRuBQCYv1DDFNgG8xcQediiBQBg/oINY7wV5jcWeD18dABg/sINY7gd5jcUd1PoyADA/BUaxmhLzG8k7LawUQGA+bdVNs6/Y/6KtYoIAMxfsWGUt8b8yoKODRcNAJh/bIX9zsf8DmoTCQCY30HDKKWA+ZWEnBsmCgAw/9xK+1mP+f3U4lAEAGB+Rw0zMxXMP1NA7eXeAYD5tSteLx7mr6f9xp09AwDzO2yYiSlh/onCWS/zCgDMb135cvExfzmtR+/kEQCYf3QZ3S7A/G5Ls5eYNwAclpxuyrhLxnPya57TL2dQfSx/15vp75BXTThuMMwfoHaeAID5AzRMZoqYP1Oo2tO8ACDlsViKka78p7WF4cqvrejGeJi/mNTzN/ICgOHq/4yY//H5x7o9AubXVnRjvF2p30nt3Vr/Fd3aeo2J5wEAw4t+n5fm+fGY5HPmYv4clVTmYH4VGcsGqQ2A4db/qJj/79pHx/zainLlL6ZooY1qA2C4+n9VAPCU5pkxv6aaB8biyl9Mav2NagMgnejIhQsX/nbmzJmjWsfD/FpKbo2D+bdK5HtCTQAML/x9Wq7+z2vJhPm1lNwaB/Nvlcj/hJoAGG7/vyUA+LqGVJhfQ8WsGPyoL0sm/5NqAmBQ59cCgIfmSoX55yqYvZ4rf7ZU/ifWBsCR8+fP/+Xs2bPH5kiF+eeoN2otV/5RcvmfXBsA75Sr/z/nyCTmf0HWq39mYE5Oja7F/A0WtjYA3i0AeG2OrgKAOctZm6cAt/15OoWbVds9AMB/y3Dl91+jyRkCgMnSdbEQ8zdeZgDQeIFnHA/zzxAvylIAEKVSZfPE/GX1rrYbAKgmvduNMb/b0ugnBgD0NY0cEfNHrt6E3AHABNEaXYL5Gy3sQccCAB0WfZ8jY/5O+wAAdFr4lWNj/o57AAB0XHw5Oubvu/7Vfy8A7wSs14CYv572bnbmDsBNKYomgvmLyu13MwDgtzZWmWF+K2UDxgUAAYs2I2XMP0O8FpcCgBaruv+ZMH8/tc4+KQDIlir0RMwfunx2yQMAO229RMb8XirhMA8A4LAoiilhfkUxWwwFAFqs6t6ZMH+7tVU7GQBQk9JVIMzvqhx+kwEAfmszNTPMP1W5DtcBgLaKjvnbqqf5aQCAucTFNsD8xaRuZyMA0EYtMX8bdSx+CgBQXHL1DTG/uqT9BAQAsWuN+WPXr3r2AKB6CSYngPknS8fCQQEAELMXMH/MurnLGgC4K8nWhDD/VomYkKsAAMhVysc8zO+jDs1kAQDilBLzx6lVmEwBQIxSYf4YdQqXJQDwXzLM779GYTMEAL5Lh/l91yd8dgDAbwkxv9/aNJMZAPBZSszvsy7NZQUA/JUU8/urSbMZAQBfpcX8vurRfDYAwE+JMb+fWnSTCQDwUWrM76MO3WUBAOqXHPPXr0G3GQCAuqXH/HX17353AFCvBTB/Pe3ZeakAAKjTCpcWi8WntLfe2dm5LDFPy7gh4w4Zb2rvQby2FKgNgHeJEf7RlqR1ToP56+gefdfaAHi7AODf0UWsnT/mr12BuPvXBkBS7rJA4L64EtbNHPPX1T/67jUBMDxH/Z4A4IvRhayRP+avoXpbe3oAwGMCgB+2Jav9aTC/vcY97FATAGnvhYz3CgBe7UFsrTNifi0liVMTAEn9wzJuynhGIPA45diuAObfrhEz8hXwAoC7BQB/zE+7z5mYv8+6W566NgDS2YYXA88JBJ6wPGzk2Jg/cvX85u4BAMNrAUdEpisCgeN+5aqTGeavo3sPu3oAwOprAR8SAPypB+Fzz4j5c5Vi3hQFvABg9anARwUCf5hymNbWYP7WKurvPJ4AkNS5U8YbMj4o4ycCghP+JCuTEeYvo3Pvu3gDwOqdQILBNwUCT/ZWJDH/JTnzQzL4VF9vxS98Xo8AWH1NIP39bhlf6eV9AmL+p+W8X17eCQ3vkyjcFmzXiwJeAZD0T7klAwyfaX+P/P0BGZ+U8eGWPkB07NixV65fv/6inOsHMq4umw/z9+LCiuf0DIBBlmSE9EjvGFx9vE3+I/3oMMIZDipxejt0+kj0ALp03vT/0uCBAqYKRDLPcEeQBGnxm27SG6KS6ddBZ9oABO9bgUgA6LtSnB4FDBQAAAaiEhIFoigAAKJUijxRwEABAGAgKiFRIIoCACBKpcgTBQwUAAAGohISBaIoAACiVIo8UcBAAQBgICohUSCKAgAgSqXIEwUMFAAABqISEgWiKAAAolSKPFHAQAEAYCAqIVEgigIAIEqlyBMFDBQAAAaiEhIFoigAAKJUijxRwEABAGAgKiFRIIoCACBKpcgTBQwUAAAGohISBaIoAACiVIo8UcBAAQBgICohUSCKAgAgSqXIEwUMFAAABqISEgWiKAAAolSKPFHAQAEAYCAqIVEgigIAIEqlyBMFDBQAAAaiEhIFoigAAKJUijxRwEABAGAgKiFRIIoCACBKpcgTBQwUAAAGohISBaIo8F+JFqSIswwi0gAAAABJRU5ErkJggg==;points=[];" vertex="1" parent="1">
          <mxGeometry x="290" y="525" width="30" height="30" as="geometry" />
        </mxCell>
        <mxCell id="XSVlNQGZRukZP-qQR-Ol-27" value="" style="shape=image;verticalLabelPosition=bottom;labelBackgroundColor=default;verticalAlign=top;aspect=fixed;imageAspect=0;image=data:image/png,iVBORw0KGgoAAAANSUhEUgAAAQAAAAEACAYAAABccqhmAAARKUlEQVR4Xu2dTahdVxXH89Kmih8ZxY+JEx0VHUhS0Iq0iVhTCq1QIQidOCroQBxEWnUoamzmls4URIkIflVsLKQvddAQTJ0UR84EsWAGVlFi21zXzrtHb27ffXefc9bae629fxc2SZu91177v9b/d8697977dg7xQAEU6FaBnW5PzsFRAAUOAQCaAAU6VgAAdFx8jo4CAIAeQIGOFQAAHRefo6MAAKAHUKBjBQBAx8Xn6CgAAOgBFOhYAQDQcfE5OgoAAHoABTpWAAB0XHyOjgIAgB5AgY4VAAAdF5+jowAAoAdQoGMFAEDHxefoKAAA6AEU6FgBANBx8Tk6CgAAegAFOlYAAHRcfI6OAgCAHkCBjhUAAB0Xn6OjAACgB1CgYwUAQMfF5+goAADoARToWAEA0HHxHR499eNhGenPhYybyxzX/1/6Nx4KCgAABREJMVuBO5ZmzzX2AIo3Z+/ceQAA0HkDVD5+urIPV/mUyvtkfEzGR2R8QMbRZX6vyZ9/lvGKjKsy/rqS93qMykeKtT0AiFWvlrJNV/3hCv6w/P0Li8Xi0ZwD7uzs/FzmfV/GL5bzgUCOcPvMAQAThWPZZAVWzXqfRDknxr93SjQBwRVZ96SMy4BgioJ7L7bwQIFSCqya/zti/GTe2Q8BwVMS5AkgMF5KADBeM1ZMU2C45T8iy38q5n9kWpj9VwkEnpV/+ZyM/8hYfXqhuU1zsQBAcyV1eaDBkHdJds+J+U9ZZCkQ2JW4D8q4AQTyFAYAeToxa7oCRcw/pCcQSK8HnAYCeQUDAHk6MWuaAkXNDwTGFwkAjNeMFXkKVDE/EMgrzv90Gjed2SiQpUBV8wOBrBrdmsQdQL5WzMxTYNX8F+UFv5N5y2xm8ZrAwboCAJu+6zWqiyv/uvhAYHM7AoBerap/bpfm5+kAdwD6rU7EdQVcmx8IcAeAZe0UCGF+ILB/A/AUwM4YPUQOZX4g8NaWBAA92NTmjOav9i8/7Sc/SJj2acGDjs0Lg3vqAAAbc7Qe1fzKLwZ9WUQ8vhTymkDghLaoQAAAaPdUD/FKmP+aCLlu+N8LBO7RFrh3CHAHoN1RbcerZf5BVSCg3F8AQFnQhsPVNj8QMGguAGAgaoMhvZgfCCg3FwBQFrTBcN7MDwQUmwwAKIrZYCiv5gcCSs0GAJSEbDCMd/MDAYWmAwAKIjYYIor5gcDM5gMAMwVscHk08wOBGU0IAGaI1+DSqOYHAhObEQBMFK7BZdHNDwQmNCUAmCBag0taMT8QGNmcAGCkYA1OH8z/Djnbb+T99un39ak+5P32+723X3WPfYLxtuEMhQFAhkgNT1k1/yUxf/rV3KqPSubnTiCzigAgU6gGp63e9j/f0JV/vVTcCRzQvACgQWdnHKm15/zbjgwENigEALa1Tnv/3pv5eTrAHUB7Lp54ohLmX/0mn4lpmi3jTmBNWu4AzHrNXeAS5r8ip/64u5PfnhAQWNEDADjvVqX0zM2f8lx+iad3AKRUgcCysQCAksMchyli/uH8a1/m6VgWIHAL2p4rRG6zFShq/hUI1HjjzxSxur8TAABT2ibGmirmBwJ7CkT5tmEAEMPMY7Osan4gEAcCAGCstfzPd2F+IBADAgDAv6HHZOjK/EDAPwQAwBh7+Z7r0vxAwDcEAIBvU+dm59r8QMAvBABArsX8zgthfiDgEwIAwK+xczILZX4g4A8CACDHZj7nmJtffpb9Wzm6fFXA4rS2BJW/KGTMcUq8WeiwJHRzTFJacwGAlpJl46ya/6IY9KT29mLQFyXm8PVgu0Z79P6OwV3R+DMyXpdRBQIAQNs59vFKmP+yHOP+taO8IBA4pX087gR2nhVNH9bWNTceAMhVyse8WuYfTg8EFot7tFtBIPhdifmkjKG+2ltsjAcAikk9e6Pa5gcCewpYvSaQnsalO6+iTwUAwGxfFgngxfxAwAgCchfwkoT+RJFuWtkEAJRWfPx+3swPBOwg8FkJ/cuSTwUAwHhDllzh1fxAwAACchfwMwn7qIzky0WJRgMAJVSetod38wMBGwi8X8K+WgoCAGCaOa1XRTE/EFCGgNwFFH0aAACsrTw+fjTzAwFFCAgAviHhvi3jThlvjG+fcSsAwDi9rGdHNT8Q2FPgmrxZ6sScJhEAPC3rvySjyHsCAMCcaumujW5+ILCnwEsCgXuntoYA4Eey9jEZRV4IBABTK6W7rhXzAwEAoOuMDqK1Zv6eIcBTgA4Mq3nEEh/p3e+DPZpnOChWT58dUHmLMC8ClmrN+vu0euVfV7YHCMy+8g+i8WPA+sYskUEv5u/h6YCa+ZNYAgDeCFTCgRX3aP22f5O0Ld4JqNz2r1z9eStwRWOW2Lq3K3/LTwdUzb+8+hd9F+CtPUt0PXvcUqB387f0dED1tn9pfj4O3DAoMP/txY38dED9yr8EwEn5ky8EaRACmH//okaEgJX5z4lEX1u5SyxmA54C2EqN+Q/WNxIE1G/7l1f+X8mfj9i24eboAMBOecyfp20ECFiZf1ck4mvB8/ok1Kxef9Q3tUieIWB125+e76dfuHJDRtEvAl0tEncAU1t28zrMP01TjxAoYf4iH/vdVBIAMK1ZN63C/PP09ASB5s1/6zWIefVi9YoCmF+nHTxAoAvzAwCdhk1RML+elilSTQh0Y34AoNO0mF9Hx/UoNSDQlfkBwPzGxfzzNTwoQkkIdGd+ADCveTH/PP1yV1tB4GVJ4PgyCauf86/+qK/qq/38FCC33fLmYf48nbRmWUHgiiQo3+E5/Us8NxprZ8e9+bkDmNaemH+abnNXmUBgblL7rZcv9QhhfgAwvvqYf7xmmivcQyCS+QHAuNbE/OP0sprtFgLRzA8A8lsU8+drVWKmOwhEND8AyGtVzJ+nU+lZbiAQ1fwAYHvLYv7tGtWcsSuv4J+smUBk8wOAgzsH89d0Vv7e1SAQ3fwAYHOTYf58A3qYWRwCLZgfAOzfupjfg6XH51AMAq2YHwC8tckw/3jjeVpxWV4TuN8yoZbMDwBu7xTMb+mccrEvCgTSV22pP1ozPwD4f4tgfnW7VAtoAoAWzQ8A9noU81fzqvrGJk8BWjU/AMD86g6sGNDkjUEtm793AHDlr+hW5a0x/0RBe/1SUMw/sWEcLrMy/+/krA/ISN/b7/LLPDRq0SMAML9G5/iIYWX+q3K8UzL+1bL5e3wKgPl9GFcjCyvzpyv/gz2YvzcAYH4N2/mIYWX+MN/ko1WGXp4CYH6tjqkfB/Mr1qAHAGB+xYapHArzKxegdQBgfuWGqRgO8xuI3zIAML9Bw1QKifmNhG8VAJjfqGEqhMX8hqK3CADMb9gwhUNjfmPBWwMA5jdumILhMX8BsVsCAOYv0DCFtsD8hYRuBQCYv1DDFNgG8xcQediiBQBg/oINY7wV5jcWeD18dABg/sINY7gd5jcUd1PoyADA/BUaxmhLzG8k7LawUQGA+bdVNs6/Y/6KtYoIAMxfsWGUt8b8yoKODRcNAJh/bIX9zsf8DmoTCQCY30HDKKWA+ZWEnBsmCgAw/9xK+1mP+f3U4lAEAGB+Rw0zMxXMP1NA7eXeAYD5tSteLx7mr6f9xp09AwDzO2yYiSlh/onCWS/zCgDMb135cvExfzmtR+/kEQCYf3QZ3S7A/G5Ls5eYNwAclpxuyrhLxnPya57TL2dQfSx/15vp75BXTThuMMwfoHaeAID5AzRMZoqYP1Oo2tO8ACDlsViKka78p7WF4cqvrejGeJi/mNTzN/ICgOHq/4yY//H5x7o9AubXVnRjvF2p30nt3Vr/Fd3aeo2J5wEAw4t+n5fm+fGY5HPmYv4clVTmYH4VGcsGqQ2A4db/qJj/79pHx/zainLlL6ZooY1qA2C4+n9VAPCU5pkxv6aaB8biyl9Mav2NagMgnejIhQsX/nbmzJmjWsfD/FpKbo2D+bdK5HtCTQAML/x9Wq7+z2vJhPm1lNwaB/Nvlcj/hJoAGG7/vyUA+LqGVJhfQ8WsGPyoL0sm/5NqAmBQ59cCgIfmSoX55yqYvZ4rf7ZU/ifWBsCR8+fP/+Xs2bPH5kiF+eeoN2otV/5RcvmfXBsA75Sr/z/nyCTmf0HWq39mYE5Oja7F/A0WtjYA3i0AeG2OrgKAOctZm6cAt/15OoWbVds9AMB/y3Dl91+jyRkCgMnSdbEQ8zdeZgDQeIFnHA/zzxAvylIAEKVSZfPE/GX1rrYbAKgmvduNMb/b0ugnBgD0NY0cEfNHrt6E3AHABNEaXYL5Gy3sQccCAB0WfZ8jY/5O+wAAdFr4lWNj/o57AAB0XHw5Oubvu/7Vfy8A7wSs14CYv572bnbmDsBNKYomgvmLyu13MwDgtzZWmWF+K2UDxgUAAYs2I2XMP0O8FpcCgBaruv+ZMH8/tc4+KQDIlir0RMwfunx2yQMAO229RMb8XirhMA8A4LAoiilhfkUxWwwFAFqs6t6ZMH+7tVU7GQBQk9JVIMzvqhx+kwEAfmszNTPMP1W5DtcBgLaKjvnbqqf5aQCAucTFNsD8xaRuZyMA0EYtMX8bdSx+CgBQXHL1DTG/uqT9BAQAsWuN+WPXr3r2AKB6CSYngPknS8fCQQEAELMXMH/MurnLGgC4K8nWhDD/VomYkKsAAMhVysc8zO+jDs1kAQDilBLzx6lVmEwBQIxSYf4YdQqXJQDwXzLM779GYTMEAL5Lh/l91yd8dgDAbwkxv9/aNJMZAPBZSszvsy7NZQUA/JUU8/urSbMZAQBfpcX8vurRfDYAwE+JMb+fWnSTCQDwUWrM76MO3WUBAOqXHPPXr0G3GQCAuqXH/HX17353AFCvBTB/Pe3ZeakAAKjTCpcWi8WntLfe2dm5LDFPy7gh4w4Zb2rvQby2FKgNgHeJEf7RlqR1ToP56+gefdfaAHi7AODf0UWsnT/mr12BuPvXBkBS7rJA4L64EtbNHPPX1T/67jUBMDxH/Z4A4IvRhayRP+avoXpbe3oAwGMCgB+2Jav9aTC/vcY97FATAGnvhYz3CgBe7UFsrTNifi0liVMTAEn9wzJuynhGIPA45diuAObfrhEz8hXwAoC7BQB/zE+7z5mYv8+6W566NgDS2YYXA88JBJ6wPGzk2Jg/cvX85u4BAMNrAUdEpisCgeN+5aqTGeavo3sPu3oAwOprAR8SAPypB+Fzz4j5c5Vi3hQFvABg9anARwUCf5hymNbWYP7WKurvPJ4AkNS5U8YbMj4o4ycCghP+JCuTEeYvo3Pvu3gDwOqdQILBNwUCT/ZWJDH/JTnzQzL4VF9vxS98Xo8AWH1NIP39bhlf6eV9AmL+p+W8X17eCQ3vkyjcFmzXiwJeAZD0T7klAwyfaX+P/P0BGZ+U8eGWPkB07NixV65fv/6inOsHMq4umw/z9+LCiuf0DIBBlmSE9EjvGFx9vE3+I/3oMMIZDipxejt0+kj0ALp03vT/0uCBAqYKRDLPcEeQBGnxm27SG6KS6ddBZ9oABO9bgUgA6LtSnB4FDBQAAAaiEhIFoigAAKJUijxRwEABAGAgKiFRIIoCACBKpcgTBQwUAAAGohISBaIoAACiVIo8UcBAAQBgICohUSCKAgAgSqXIEwUMFAAABqISEgWiKAAAolSKPFHAQAEAYCAqIVEgigIAIEqlyBMFDBQAAAaiEhIFoigAAKJUijxRwEABAGAgKiFRIIoCACBKpcgTBQwUAAAGohISBaIoAACiVIo8UcBAAQBgICohUSCKAgAgSqXIEwUMFAAABqISEgWiKAAAolSKPFHAQAEAYCAqIVEgigIAIEqlyBMFDBQAAAaiEhIFoigAAKJUijxRwEABAGAgKiFRIIoCACBKpcgTBQwUAAAGohISBaIo8F+JFqSIswwi0gAAAABJRU5ErkJggg==;points=[];" vertex="1" parent="1">
          <mxGeometry x="448" y="600" width="30" height="30" as="geometry" />
        </mxCell>
        <mxCell id="XSVlNQGZRukZP-qQR-Ol-28" value="" style="shape=message;html=1;outlineConnect=0;" vertex="1" parent="1">
          <mxGeometry x="453" y="670.0036842105262" width="20" height="14" as="geometry" />
        </mxCell>
        <mxCell id="XSVlNQGZRukZP-qQR-Ol-29" value="" style="shape=message;html=1;outlineConnect=0;" vertex="1" parent="1">
          <mxGeometry x="453" y="850.0036842105262" width="20" height="14" as="geometry" />
        </mxCell>
        <mxCell id="XSVlNQGZRukZP-qQR-Ol-30" value="" style="shape=image;verticalLabelPosition=bottom;labelBackgroundColor=default;verticalAlign=top;aspect=fixed;imageAspect=0;image=data:image/png,iVBORw0KGgoAAAANSUhEUgAAAQAAAAEACAYAAABccqhmAAARKUlEQVR4Xu2dTahdVxXH89Kmih8ZxY+JEx0VHUhS0Iq0iVhTCq1QIQidOCroQBxEWnUoamzmls4URIkIflVsLKQvddAQTJ0UR84EsWAGVlFi21zXzrtHb27ffXefc9bae629fxc2SZu91177v9b/d8697977dg7xQAEU6FaBnW5PzsFRAAUOAQCaAAU6VgAAdFx8jo4CAIAeQIGOFQAAHRefo6MAAKAHUKBjBQBAx8Xn6CgAAOgBFOhYAQDQcfE5OgoAAHoABTpWAAB0XHyOjgIAgB5AgY4VAAAdF5+jowAAoAdQoGMFAEDHxefoKAAA6AEU6FgBANBx8Tk6CgAAegAFOlYAAHRcfI6OAgCAHkCBjhUAAB0Xn6OjAACgB1CgYwUAQMfF5+goAADoARToWAEA0HHxHR499eNhGenPhYybyxzX/1/6Nx4KCgAABREJMVuBO5ZmzzX2AIo3Z+/ceQAA0HkDVD5+urIPV/mUyvtkfEzGR2R8QMbRZX6vyZ9/lvGKjKsy/rqS93qMykeKtT0AiFWvlrJNV/3hCv6w/P0Li8Xi0ZwD7uzs/FzmfV/GL5bzgUCOcPvMAQAThWPZZAVWzXqfRDknxr93SjQBwRVZ96SMy4BgioJ7L7bwQIFSCqya/zti/GTe2Q8BwVMS5AkgMF5KADBeM1ZMU2C45T8iy38q5n9kWpj9VwkEnpV/+ZyM/8hYfXqhuU1zsQBAcyV1eaDBkHdJds+J+U9ZZCkQ2JW4D8q4AQTyFAYAeToxa7oCRcw/pCcQSK8HnAYCeQUDAHk6MWuaAkXNDwTGFwkAjNeMFXkKVDE/EMgrzv90Gjed2SiQpUBV8wOBrBrdmsQdQL5WzMxTYNX8F+UFv5N5y2xm8ZrAwboCAJu+6zWqiyv/uvhAYHM7AoBerap/bpfm5+kAdwD6rU7EdQVcmx8IcAeAZe0UCGF+ILB/A/AUwM4YPUQOZX4g8NaWBAA92NTmjOav9i8/7Sc/SJj2acGDjs0Lg3vqAAAbc7Qe1fzKLwZ9WUQ8vhTymkDghLaoQAAAaPdUD/FKmP+aCLlu+N8LBO7RFrh3CHAHoN1RbcerZf5BVSCg3F8AQFnQhsPVNj8QMGguAGAgaoMhvZgfCCg3FwBQFrTBcN7MDwQUmwwAKIrZYCiv5gcCSs0GAJSEbDCMd/MDAYWmAwAKIjYYIor5gcDM5gMAMwVscHk08wOBGU0IAGaI1+DSqOYHAhObEQBMFK7BZdHNDwQmNCUAmCBag0taMT8QGNmcAGCkYA1OH8z/Djnbb+T99un39ak+5P32+723X3WPfYLxtuEMhQFAhkgNT1k1/yUxf/rV3KqPSubnTiCzigAgU6gGp63e9j/f0JV/vVTcCRzQvACgQWdnHKm15/zbjgwENigEALa1Tnv/3pv5eTrAHUB7Lp54ohLmX/0mn4lpmi3jTmBNWu4AzHrNXeAS5r8ip/64u5PfnhAQWNEDADjvVqX0zM2f8lx+iad3AKRUgcCysQCAksMchyli/uH8a1/m6VgWIHAL2p4rRG6zFShq/hUI1HjjzxSxur8TAABT2ibGmirmBwJ7CkT5tmEAEMPMY7Osan4gEAcCAGCstfzPd2F+IBADAgDAv6HHZOjK/EDAPwQAwBh7+Z7r0vxAwDcEAIBvU+dm59r8QMAvBABArsX8zgthfiDgEwIAwK+xczILZX4g4A8CACDHZj7nmJtffpb9Wzm6fFXA4rS2BJW/KGTMcUq8WeiwJHRzTFJacwGAlpJl46ya/6IY9KT29mLQFyXm8PVgu0Z79P6OwV3R+DMyXpdRBQIAQNs59vFKmP+yHOP+taO8IBA4pX087gR2nhVNH9bWNTceAMhVyse8WuYfTg8EFot7tFtBIPhdifmkjKG+2ltsjAcAikk9e6Pa5gcCewpYvSaQnsalO6+iTwUAwGxfFgngxfxAwAgCchfwkoT+RJFuWtkEAJRWfPx+3swPBOwg8FkJ/cuSTwUAwHhDllzh1fxAwAACchfwMwn7qIzky0WJRgMAJVSetod38wMBGwi8X8K+WgoCAGCaOa1XRTE/EFCGgNwFFH0aAACsrTw+fjTzAwFFCAgAviHhvi3jThlvjG+fcSsAwDi9rGdHNT8Q2FPgmrxZ6sScJhEAPC3rvySjyHsCAMCcaumujW5+ILCnwEsCgXuntoYA4Eey9jEZRV4IBABTK6W7rhXzAwEAoOuMDqK1Zv6eIcBTgA4Mq3nEEh/p3e+DPZpnOChWT58dUHmLMC8ClmrN+vu0euVfV7YHCMy+8g+i8WPA+sYskUEv5u/h6YCa+ZNYAgDeCFTCgRX3aP22f5O0Ld4JqNz2r1z9eStwRWOW2Lq3K3/LTwdUzb+8+hd9F+CtPUt0PXvcUqB387f0dED1tn9pfj4O3DAoMP/txY38dED9yr8EwEn5ky8EaRACmH//okaEgJX5z4lEX1u5SyxmA54C2EqN+Q/WNxIE1G/7l1f+X8mfj9i24eboAMBOecyfp20ECFiZf1ck4mvB8/ok1Kxef9Q3tUieIWB125+e76dfuHJDRtEvAl0tEncAU1t28zrMP01TjxAoYf4iH/vdVBIAMK1ZN63C/PP09ASB5s1/6zWIefVi9YoCmF+nHTxAoAvzAwCdhk1RML+elilSTQh0Y34AoNO0mF9Hx/UoNSDQlfkBwPzGxfzzNTwoQkkIdGd+ADCveTH/PP1yV1tB4GVJ4PgyCauf86/+qK/qq/38FCC33fLmYf48nbRmWUHgiiQo3+E5/Us8NxprZ8e9+bkDmNaemH+abnNXmUBgblL7rZcv9QhhfgAwvvqYf7xmmivcQyCS+QHAuNbE/OP0sprtFgLRzA8A8lsU8+drVWKmOwhEND8AyGtVzJ+nU+lZbiAQ1fwAYHvLYv7tGtWcsSuv4J+smUBk8wOAgzsH89d0Vv7e1SAQ3fwAYHOTYf58A3qYWRwCLZgfAOzfupjfg6XH51AMAq2YHwC8tckw/3jjeVpxWV4TuN8yoZbMDwBu7xTMb+mccrEvCgTSV22pP1ozPwD4f4tgfnW7VAtoAoAWzQ8A9noU81fzqvrGJk8BWjU/AMD86g6sGNDkjUEtm793AHDlr+hW5a0x/0RBe/1SUMw/sWEcLrMy/+/krA/ISN/b7/LLPDRq0SMAML9G5/iIYWX+q3K8UzL+1bL5e3wKgPl9GFcjCyvzpyv/gz2YvzcAYH4N2/mIYWX+MN/ko1WGXp4CYH6tjqkfB/Mr1qAHAGB+xYapHArzKxegdQBgfuWGqRgO8xuI3zIAML9Bw1QKifmNhG8VAJjfqGEqhMX8hqK3CADMb9gwhUNjfmPBWwMA5jdumILhMX8BsVsCAOYv0DCFtsD8hYRuBQCYv1DDFNgG8xcQediiBQBg/oINY7wV5jcWeD18dABg/sINY7gd5jcUd1PoyADA/BUaxmhLzG8k7LawUQGA+bdVNs6/Y/6KtYoIAMxfsWGUt8b8yoKODRcNAJh/bIX9zsf8DmoTCQCY30HDKKWA+ZWEnBsmCgAw/9xK+1mP+f3U4lAEAGB+Rw0zMxXMP1NA7eXeAYD5tSteLx7mr6f9xp09AwDzO2yYiSlh/onCWS/zCgDMb135cvExfzmtR+/kEQCYf3QZ3S7A/G5Ls5eYNwAclpxuyrhLxnPya57TL2dQfSx/15vp75BXTThuMMwfoHaeAID5AzRMZoqYP1Oo2tO8ACDlsViKka78p7WF4cqvrejGeJi/mNTzN/ICgOHq/4yY//H5x7o9AubXVnRjvF2p30nt3Vr/Fd3aeo2J5wEAw4t+n5fm+fGY5HPmYv4clVTmYH4VGcsGqQ2A4db/qJj/79pHx/zainLlL6ZooY1qA2C4+n9VAPCU5pkxv6aaB8biyl9Mav2NagMgnejIhQsX/nbmzJmjWsfD/FpKbo2D+bdK5HtCTQAML/x9Wq7+z2vJhPm1lNwaB/Nvlcj/hJoAGG7/vyUA+LqGVJhfQ8WsGPyoL0sm/5NqAmBQ59cCgIfmSoX55yqYvZ4rf7ZU/ifWBsCR8+fP/+Xs2bPH5kiF+eeoN2otV/5RcvmfXBsA75Sr/z/nyCTmf0HWq39mYE5Oja7F/A0WtjYA3i0AeG2OrgKAOctZm6cAt/15OoWbVds9AMB/y3Dl91+jyRkCgMnSdbEQ8zdeZgDQeIFnHA/zzxAvylIAEKVSZfPE/GX1rrYbAKgmvduNMb/b0ugnBgD0NY0cEfNHrt6E3AHABNEaXYL5Gy3sQccCAB0WfZ8jY/5O+wAAdFr4lWNj/o57AAB0XHw5Oubvu/7Vfy8A7wSs14CYv572bnbmDsBNKYomgvmLyu13MwDgtzZWmWF+K2UDxgUAAYs2I2XMP0O8FpcCgBaruv+ZMH8/tc4+KQDIlir0RMwfunx2yQMAO229RMb8XirhMA8A4LAoiilhfkUxWwwFAFqs6t6ZMH+7tVU7GQBQk9JVIMzvqhx+kwEAfmszNTPMP1W5DtcBgLaKjvnbqqf5aQCAucTFNsD8xaRuZyMA0EYtMX8bdSx+CgBQXHL1DTG/uqT9BAQAsWuN+WPXr3r2AKB6CSYngPknS8fCQQEAELMXMH/MurnLGgC4K8nWhDD/VomYkKsAAMhVysc8zO+jDs1kAQDilBLzx6lVmEwBQIxSYf4YdQqXJQDwXzLM779GYTMEAL5Lh/l91yd8dgDAbwkxv9/aNJMZAPBZSszvsy7NZQUA/JUU8/urSbMZAQBfpcX8vurRfDYAwE+JMb+fWnSTCQDwUWrM76MO3WUBAOqXHPPXr0G3GQCAuqXH/HX17353AFCvBTB/Pe3ZeakAAKjTCpcWi8WntLfe2dm5LDFPy7gh4w4Zb2rvQby2FKgNgHeJEf7RlqR1ToP56+gefdfaAHi7AODf0UWsnT/mr12BuPvXBkBS7rJA4L64EtbNHPPX1T/67jUBMDxH/Z4A4IvRhayRP+avoXpbe3oAwGMCgB+2Jav9aTC/vcY97FATAGnvhYz3CgBe7UFsrTNifi0liVMTAEn9wzJuynhGIPA45diuAObfrhEz8hXwAoC7BQB/zE+7z5mYv8+6W566NgDS2YYXA88JBJ6wPGzk2Jg/cvX85u4BAMNrAUdEpisCgeN+5aqTGeavo3sPu3oAwOprAR8SAPypB+Fzz4j5c5Vi3hQFvABg9anARwUCf5hymNbWYP7WKurvPJ4AkNS5U8YbMj4o4ycCghP+JCuTEeYvo3Pvu3gDwOqdQILBNwUCT/ZWJDH/JTnzQzL4VF9vxS98Xo8AWH1NIP39bhlf6eV9AmL+p+W8X17eCQ3vkyjcFmzXiwJeAZD0T7klAwyfaX+P/P0BGZ+U8eGWPkB07NixV65fv/6inOsHMq4umw/z9+LCiuf0DIBBlmSE9EjvGFx9vE3+I/3oMMIZDipxejt0+kj0ALp03vT/0uCBAqYKRDLPcEeQBGnxm27SG6KS6ddBZ9oABO9bgUgA6LtSnB4FDBQAAAaiEhIFoigAAKJUijxRwEABAGAgKiFRIIoCACBKpcgTBQwUAAAGohISBaIoAACiVIo8UcBAAQBgICohUSCKAgAgSqXIEwUMFAAABqISEgWiKAAAolSKPFHAQAEAYCAqIVEgigIAIEqlyBMFDBQAAAaiEhIFoigAAKJUijxRwEABAGAgKiFRIIoCACBKpcgTBQwUAAAGohISBaIoAACiVIo8UcBAAQBgICohUSCKAgAgSqXIEwUMFAAABqISEgWiKAAAolSKPFHAQAEAYCAqIVEgigIAIEqlyBMFDBQAAAaiEhIFoigAAKJUijxRwEABAGAgKiFRIIoCACBKpcgTBQwUAAAGohISBaIo8F+JFqSIswwi0gAAAABJRU5ErkJggg==;points=[];" vertex="1" parent="1">
          <mxGeometry x="640" y="662" width="30" height="30" as="geometry" />
        </mxCell>
        <mxCell id="XSVlNQGZRukZP-qQR-Ol-31" value="" style="shape=image;verticalLabelPosition=bottom;labelBackgroundColor=default;verticalAlign=top;aspect=fixed;imageAspect=0;image=data:image/png,iVBORw0KGgoAAAANSUhEUgAAAQAAAAEACAYAAABccqhmAAARKUlEQVR4Xu2dTahdVxXH89Kmih8ZxY+JEx0VHUhS0Iq0iVhTCq1QIQidOCroQBxEWnUoamzmls4URIkIflVsLKQvddAQTJ0UR84EsWAGVlFi21zXzrtHb27ffXefc9bae629fxc2SZu91177v9b/d8697977dg7xQAEU6FaBnW5PzsFRAAUOAQCaAAU6VgAAdFx8jo4CAIAeQIGOFQAAHRefo6MAAKAHUKBjBQBAx8Xn6CgAAOgBFOhYAQDQcfE5OgoAAHoABTpWAAB0XHyOjgIAgB5AgY4VAAAdF5+jowAAoAdQoGMFAEDHxefoKAAA6AEU6FgBANBx8Tk6CgAAegAFOlYAAHRcfI6OAgCAHkCBjhUAAB0Xn6OjAACgB1CgYwUAQMfF5+goAADoARToWAEA0HHxHR499eNhGenPhYybyxzX/1/6Nx4KCgAABREJMVuBO5ZmzzX2AIo3Z+/ceQAA0HkDVD5+urIPV/mUyvtkfEzGR2R8QMbRZX6vyZ9/lvGKjKsy/rqS93qMykeKtT0AiFWvlrJNV/3hCv6w/P0Li8Xi0ZwD7uzs/FzmfV/GL5bzgUCOcPvMAQAThWPZZAVWzXqfRDknxr93SjQBwRVZ96SMy4BgioJ7L7bwQIFSCqya/zti/GTe2Q8BwVMS5AkgMF5KADBeM1ZMU2C45T8iy38q5n9kWpj9VwkEnpV/+ZyM/8hYfXqhuU1zsQBAcyV1eaDBkHdJds+J+U9ZZCkQ2JW4D8q4AQTyFAYAeToxa7oCRcw/pCcQSK8HnAYCeQUDAHk6MWuaAkXNDwTGFwkAjNeMFXkKVDE/EMgrzv90Gjed2SiQpUBV8wOBrBrdmsQdQL5WzMxTYNX8F+UFv5N5y2xm8ZrAwboCAJu+6zWqiyv/uvhAYHM7AoBerap/bpfm5+kAdwD6rU7EdQVcmx8IcAeAZe0UCGF+ILB/A/AUwM4YPUQOZX4g8NaWBAA92NTmjOav9i8/7Sc/SJj2acGDjs0Lg3vqAAAbc7Qe1fzKLwZ9WUQ8vhTymkDghLaoQAAAaPdUD/FKmP+aCLlu+N8LBO7RFrh3CHAHoN1RbcerZf5BVSCg3F8AQFnQhsPVNj8QMGguAGAgaoMhvZgfCCg3FwBQFrTBcN7MDwQUmwwAKIrZYCiv5gcCSs0GAJSEbDCMd/MDAYWmAwAKIjYYIor5gcDM5gMAMwVscHk08wOBGU0IAGaI1+DSqOYHAhObEQBMFK7BZdHNDwQmNCUAmCBag0taMT8QGNmcAGCkYA1OH8z/Djnbb+T99un39ak+5P32+723X3WPfYLxtuEMhQFAhkgNT1k1/yUxf/rV3KqPSubnTiCzigAgU6gGp63e9j/f0JV/vVTcCRzQvACgQWdnHKm15/zbjgwENigEALa1Tnv/3pv5eTrAHUB7Lp54ohLmX/0mn4lpmi3jTmBNWu4AzHrNXeAS5r8ip/64u5PfnhAQWNEDADjvVqX0zM2f8lx+iad3AKRUgcCysQCAksMchyli/uH8a1/m6VgWIHAL2p4rRG6zFShq/hUI1HjjzxSxur8TAABT2ibGmirmBwJ7CkT5tmEAEMPMY7Osan4gEAcCAGCstfzPd2F+IBADAgDAv6HHZOjK/EDAPwQAwBh7+Z7r0vxAwDcEAIBvU+dm59r8QMAvBABArsX8zgthfiDgEwIAwK+xczILZX4g4A8CACDHZj7nmJtffpb9Wzm6fFXA4rS2BJW/KGTMcUq8WeiwJHRzTFJacwGAlpJl46ya/6IY9KT29mLQFyXm8PVgu0Z79P6OwV3R+DMyXpdRBQIAQNs59vFKmP+yHOP+taO8IBA4pX087gR2nhVNH9bWNTceAMhVyse8WuYfTg8EFot7tFtBIPhdifmkjKG+2ltsjAcAikk9e6Pa5gcCewpYvSaQnsalO6+iTwUAwGxfFgngxfxAwAgCchfwkoT+RJFuWtkEAJRWfPx+3swPBOwg8FkJ/cuSTwUAwHhDllzh1fxAwAACchfwMwn7qIzky0WJRgMAJVSetod38wMBGwi8X8K+WgoCAGCaOa1XRTE/EFCGgNwFFH0aAACsrTw+fjTzAwFFCAgAviHhvi3jThlvjG+fcSsAwDi9rGdHNT8Q2FPgmrxZ6sScJhEAPC3rvySjyHsCAMCcaumujW5+ILCnwEsCgXuntoYA4Eey9jEZRV4IBABTK6W7rhXzAwEAoOuMDqK1Zv6eIcBTgA4Mq3nEEh/p3e+DPZpnOChWT58dUHmLMC8ClmrN+vu0euVfV7YHCMy+8g+i8WPA+sYskUEv5u/h6YCa+ZNYAgDeCFTCgRX3aP22f5O0Ld4JqNz2r1z9eStwRWOW2Lq3K3/LTwdUzb+8+hd9F+CtPUt0PXvcUqB387f0dED1tn9pfj4O3DAoMP/txY38dED9yr8EwEn5ky8EaRACmH//okaEgJX5z4lEX1u5SyxmA54C2EqN+Q/WNxIE1G/7l1f+X8mfj9i24eboAMBOecyfp20ECFiZf1ck4mvB8/ok1Kxef9Q3tUieIWB125+e76dfuHJDRtEvAl0tEncAU1t28zrMP01TjxAoYf4iH/vdVBIAMK1ZN63C/PP09ASB5s1/6zWIefVi9YoCmF+nHTxAoAvzAwCdhk1RML+elilSTQh0Y34AoNO0mF9Hx/UoNSDQlfkBwPzGxfzzNTwoQkkIdGd+ADCveTH/PP1yV1tB4GVJ4PgyCauf86/+qK/qq/38FCC33fLmYf48nbRmWUHgiiQo3+E5/Us8NxprZ8e9+bkDmNaemH+abnNXmUBgblL7rZcv9QhhfgAwvvqYf7xmmivcQyCS+QHAuNbE/OP0sprtFgLRzA8A8lsU8+drVWKmOwhEND8AyGtVzJ+nU+lZbiAQ1fwAYHvLYv7tGtWcsSuv4J+smUBk8wOAgzsH89d0Vv7e1SAQ3fwAYHOTYf58A3qYWRwCLZgfAOzfupjfg6XH51AMAq2YHwC8tckw/3jjeVpxWV4TuN8yoZbMDwBu7xTMb+mccrEvCgTSV22pP1ozPwD4f4tgfnW7VAtoAoAWzQ8A9noU81fzqvrGJk8BWjU/AMD86g6sGNDkjUEtm793AHDlr+hW5a0x/0RBe/1SUMw/sWEcLrMy/+/krA/ISN/b7/LLPDRq0SMAML9G5/iIYWX+q3K8UzL+1bL5e3wKgPl9GFcjCyvzpyv/gz2YvzcAYH4N2/mIYWX+MN/ko1WGXp4CYH6tjqkfB/Mr1qAHAGB+xYapHArzKxegdQBgfuWGqRgO8xuI3zIAML9Bw1QKifmNhG8VAJjfqGEqhMX8hqK3CADMb9gwhUNjfmPBWwMA5jdumILhMX8BsVsCAOYv0DCFtsD8hYRuBQCYv1DDFNgG8xcQediiBQBg/oINY7wV5jcWeD18dABg/sINY7gd5jcUd1PoyADA/BUaxmhLzG8k7LawUQGA+bdVNs6/Y/6KtYoIAMxfsWGUt8b8yoKODRcNAJh/bIX9zsf8DmoTCQCY30HDKKWA+ZWEnBsmCgAw/9xK+1mP+f3U4lAEAGB+Rw0zMxXMP1NA7eXeAYD5tSteLx7mr6f9xp09AwDzO2yYiSlh/onCWS/zCgDMb135cvExfzmtR+/kEQCYf3QZ3S7A/G5Ls5eYNwAclpxuyrhLxnPya57TL2dQfSx/15vp75BXTThuMMwfoHaeAID5AzRMZoqYP1Oo2tO8ACDlsViKka78p7WF4cqvrejGeJi/mNTzN/ICgOHq/4yY//H5x7o9AubXVnRjvF2p30nt3Vr/Fd3aeo2J5wEAw4t+n5fm+fGY5HPmYv4clVTmYH4VGcsGqQ2A4db/qJj/79pHx/zainLlL6ZooY1qA2C4+n9VAPCU5pkxv6aaB8biyl9Mav2NagMgnejIhQsX/nbmzJmjWsfD/FpKbo2D+bdK5HtCTQAML/x9Wq7+z2vJhPm1lNwaB/Nvlcj/hJoAGG7/vyUA+LqGVJhfQ8WsGPyoL0sm/5NqAmBQ59cCgIfmSoX55yqYvZ4rf7ZU/ifWBsCR8+fP/+Xs2bPH5kiF+eeoN2otV/5RcvmfXBsA75Sr/z/nyCTmf0HWq39mYE5Oja7F/A0WtjYA3i0AeG2OrgKAOctZm6cAt/15OoWbVds9AMB/y3Dl91+jyRkCgMnSdbEQ8zdeZgDQeIFnHA/zzxAvylIAEKVSZfPE/GX1rrYbAKgmvduNMb/b0ugnBgD0NY0cEfNHrt6E3AHABNEaXYL5Gy3sQccCAB0WfZ8jY/5O+wAAdFr4lWNj/o57AAB0XHw5Oubvu/7Vfy8A7wSs14CYv572bnbmDsBNKYomgvmLyu13MwDgtzZWmWF+K2UDxgUAAYs2I2XMP0O8FpcCgBaruv+ZMH8/tc4+KQDIlir0RMwfunx2yQMAO229RMb8XirhMA8A4LAoiilhfkUxWwwFAFqs6t6ZMH+7tVU7GQBQk9JVIMzvqhx+kwEAfmszNTPMP1W5DtcBgLaKjvnbqqf5aQCAucTFNsD8xaRuZyMA0EYtMX8bdSx+CgBQXHL1DTG/uqT9BAQAsWuN+WPXr3r2AKB6CSYngPknS8fCQQEAELMXMH/MurnLGgC4K8nWhDD/VomYkKsAAMhVysc8zO+jDs1kAQDilBLzx6lVmEwBQIxSYf4YdQqXJQDwXzLM779GYTMEAL5Lh/l91yd8dgDAbwkxv9/aNJMZAPBZSszvsy7NZQUA/JUU8/urSbMZAQBfpcX8vurRfDYAwE+JMb+fWnSTCQDwUWrM76MO3WUBAOqXHPPXr0G3GQCAuqXH/HX17353AFCvBTB/Pe3ZeakAAKjTCpcWi8WntLfe2dm5LDFPy7gh4w4Zb2rvQby2FKgNgHeJEf7RlqR1ToP56+gefdfaAHi7AODf0UWsnT/mr12BuPvXBkBS7rJA4L64EtbNHPPX1T/67jUBMDxH/Z4A4IvRhayRP+avoXpbe3oAwGMCgB+2Jav9aTC/vcY97FATAGnvhYz3CgBe7UFsrTNifi0liVMTAEn9wzJuynhGIPA45diuAObfrhEz8hXwAoC7BQB/zE+7z5mYv8+6W566NgDS2YYXA88JBJ6wPGzk2Jg/cvX85u4BAMNrAUdEpisCgeN+5aqTGeavo3sPu3oAwOprAR8SAPypB+Fzz4j5c5Vi3hQFvABg9anARwUCf5hymNbWYP7WKurvPJ4AkNS5U8YbMj4o4ycCghP+JCuTEeYvo3Pvu3gDwOqdQILBNwUCT/ZWJDH/JTnzQzL4VF9vxS98Xo8AWH1NIP39bhlf6eV9AmL+p+W8X17eCQ3vkyjcFmzXiwJeAZD0T7klAwyfaX+P/P0BGZ+U8eGWPkB07NixV65fv/6inOsHMq4umw/z9+LCiuf0DIBBlmSE9EjvGFx9vE3+I/3oMMIZDipxejt0+kj0ALp03vT/0uCBAqYKRDLPcEeQBGnxm27SG6KS6ddBZ9oABO9bgUgA6LtSnB4FDBQAAAaiEhIFoigAAKJUijxRwEABAGAgKiFRIIoCACBKpcgTBQwUAAAGohISBaIoAACiVIo8UcBAAQBgICohUSCKAgAgSqXIEwUMFAAABqISEgWiKAAAolSKPFHAQAEAYCAqIVEgigIAIEqlyBMFDBQAAAaiEhIFoigAAKJUijxRwEABAGAgKiFRIIoCACBKpcgTBQwUAAAGohISBaIoAACiVIo8UcBAAQBgICohUSCKAgAgSqXIEwUMFAAABqISEgWiKAAAolSKPFHAQAEAYCAqIVEgigIAIEqlyBMFDBQAAAaiEhIFoigAAKJUijxRwEABAGAgKiFRIIoCACBKpcgTBQwUAAAGohISBaIo8F+JFqSIswwi0gAAAABJRU5ErkJggg==;points=[];" vertex="1" parent="1">
          <mxGeometry x="640" y="850" width="30" height="30" as="geometry" />
        </mxCell>
        <mxCell id="XSVlNQGZRukZP-qQR-Ol-32" value="" style="shape=message;html=1;outlineConnect=0;" vertex="1" parent="1">
          <mxGeometry x="340" y="880.0036842105262" width="20" height="14" as="geometry" />
        </mxCell>
        <mxCell id="XSVlNQGZRukZP-qQR-Ol-33" value="" style="shape=message;html=1;outlineConnect=0;" vertex="1" parent="1">
          <mxGeometry x="124" y="643.0036842105262" width="20" height="14" as="geometry" />
        </mxCell>
        <mxCell id="XSVlNQGZRukZP-qQR-Ol-36" value="Envio de informação" style="text;html=1;align=center;verticalAlign=middle;whiteSpace=wrap;rounded=0;" vertex="1" parent="1">
          <mxGeometry x="368" y="12" width="142" height="30" as="geometry" />
        </mxCell>
        <mxCell id="XSVlNQGZRukZP-qQR-Ol-37" value="Envio de caneta/matéria prima" style="text;html=1;align=center;verticalAlign=middle;whiteSpace=wrap;rounded=0;" vertex="1" parent="1">
          <mxGeometry x="380" y="50" width="172" height="30" as="geometry" />
        </mxCell>
        <mxCell id="XSVlNQGZRukZP-qQR-Ol-39" value="Se = 0, Controle pausa a transferência de mat. prima e fabricação de caneta" style="shape=note;whiteSpace=wrap;html=1;backgroundOutline=1;darkOpacity=0.05;" vertex="1" parent="1">
          <mxGeometry x="790" y="420" width="130" height="120" as="geometry" />
        </mxCell>
        <mxCell id="XSVlNQGZRukZP-qQR-Ol-40" value="" style="endArrow=none;dashed=1;html=1;rounded=0;exitX=1;exitY=0.5;exitDx=0;exitDy=0;entryX=0;entryY=0.5;entryDx=0;entryDy=0;entryPerimeter=0;" edge="1" parent="1" source="3W7pm7vqjgpNa179hupT-22" target="XSVlNQGZRukZP-qQR-Ol-39">
          <mxGeometry width="50" height="50" relative="1" as="geometry">
            <mxPoint x="770" y="420" as="sourcePoint" />
            <mxPoint x="820" y="370" as="targetPoint" />
          </mxGeometry>
        </mxCell>
        <mxCell id="XSVlNQGZRukZP-qQR-Ol-41" value="Se há mat. prima e fábrica está disponível, envia mat. prima e fabrica caneta" style="shape=note;whiteSpace=wrap;html=1;backgroundOutline=1;darkOpacity=0.05;" vertex="1" parent="1">
          <mxGeometry x="568" y="80" width="130" height="120" as="geometry" />
        </mxCell>
        <mxCell id="XSVlNQGZRukZP-qQR-Ol-42" value="" style="endArrow=none;dashed=1;html=1;rounded=0;exitX=1;exitY=0;exitDx=0;exitDy=0;" edge="1" parent="1" source="3W7pm7vqjgpNa179hupT-20">
          <mxGeometry width="50" height="50" relative="1" as="geometry">
            <mxPoint x="590" y="250" as="sourcePoint" />
            <mxPoint x="640" y="200" as="targetPoint" />
          </mxGeometry>
        </mxCell>
        <mxCell id="XSVlNQGZRukZP-qQR-Ol-43" value="" style="shape=message;html=1;outlineConnect=0;" vertex="1" parent="1">
          <mxGeometry x="404" y="130.00368421052622" width="20" height="14" as="geometry" />
        </mxCell>
        <mxCell id="XSVlNQGZRukZP-qQR-Ol-44" value="" style="shape=message;html=1;outlineConnect=0;" vertex="1" parent="1">
          <mxGeometry x="404" y="420.0036842105262" width="20" height="14" as="geometry" />
        </mxCell>
        <mxCell id="XSVlNQGZRukZP-qQR-Ol-45" value="&lt;div&gt;Se disponível = 0, avisa o comprador;&lt;/div&gt;&lt;div&gt;Se disponível &amp;gt;= solicitado, envia solicitado;&lt;/div&gt;&lt;div&gt;Se disponível &amp;lt; solicitado, envia disponível&lt;br&gt;&lt;/div&gt;" style="shape=note;whiteSpace=wrap;html=1;backgroundOutline=1;darkOpacity=0.05;" vertex="1" parent="1">
          <mxGeometry x="790" y="700" width="250" height="100" as="geometry" />
        </mxCell>
        <mxCell id="XSVlNQGZRukZP-qQR-Ol-46" value="" style="endArrow=none;dashed=1;html=1;rounded=0;exitX=1;exitY=0.5;exitDx=0;exitDy=0;entryX=0;entryY=0.5;entryDx=0;entryDy=0;entryPerimeter=0;" edge="1" parent="1">
          <mxGeometry width="50" height="50" relative="1" as="geometry">
            <mxPoint x="754" y="749.6600000000001" as="sourcePoint" />
            <mxPoint x="790" y="749.6600000000001" as="targetPoint" />
          </mxGeometry>
        </mxCell>
        <mxCell id="XSVlNQGZRukZP-qQR-Ol-48" value="Criador printa na saída quantas canetas foram compradas" style="shape=note;whiteSpace=wrap;html=1;backgroundOutline=1;darkOpacity=0.05;" vertex="1" parent="1">
          <mxGeometry x="69" y="960" width="130" height="120" as="geometry" />
        </mxCell>
        <mxCell id="XSVlNQGZRukZP-qQR-Ol-49" value="" style="endArrow=none;dashed=1;html=1;rounded=0;entryX=0.5;entryY=1;entryDx=0;entryDy=0;exitX=0.5;exitY=0;exitDx=0;exitDy=0;exitPerimeter=0;" edge="1" parent="1" source="XSVlNQGZRukZP-qQR-Ol-48" target="3W7pm7vqjgpNa179hupT-27">
          <mxGeometry width="50" height="50" relative="1" as="geometry">
            <mxPoint x="308" y="1060" as="sourcePoint" />
            <mxPoint x="368" y="910" as="targetPoint" />
          </mxGeometry>
        </mxCell>
        <mxCell id="XSVlNQGZRukZP-qQR-Ol-50" value="Finaliza a aplicação" style="rounded=0;whiteSpace=wrap;html=1;" vertex="1" parent="1">
          <mxGeometry x="-160" y="400" width="120" height="60" as="geometry" />
        </mxCell>
        <mxCell id="XSVlNQGZRukZP-qQR-Ol-52" value="Se mat. prima = 0 e canetas armazenadas = 0, finaliza aplicação" style="shape=note;whiteSpace=wrap;html=1;backgroundOutline=1;darkOpacity=0.05;" vertex="1" parent="1">
          <mxGeometry x="-165" y="525" width="130" height="120" as="geometry" />
        </mxCell>
        <mxCell id="XSVlNQGZRukZP-qQR-Ol-53" value="" style="endArrow=none;dashed=1;html=1;rounded=0;exitX=0.5;exitY=0;exitDx=0;exitDy=0;exitPerimeter=0;entryX=0.5;entryY=1;entryDx=0;entryDy=0;" edge="1" parent="1" source="XSVlNQGZRukZP-qQR-Ol-52" target="XSVlNQGZRukZP-qQR-Ol-50">
          <mxGeometry width="50" height="50" relative="1" as="geometry">
            <mxPoint x="270" y="684" as="sourcePoint" />
            <mxPoint x="-74" y="474" as="targetPoint" />
          </mxGeometry>
        </mxCell>
      </root>
    </mxGraphModel>
  </diagram>
</mxfile>
